<svg xmlns="http://www.w3.org/2000/svg" xmlns:xlink="http://www.w3.org/1999/xlink" width="500" zoomAndPan="magnify" viewBox="0 0 375 374.999991" height="500" preserveAspectRatio="xMidYMid meet" version="1.0"><defs><g/></defs><g fill="#000000" fill-opacity="0.302"><g transform="translate(5.696537, 186.938705)"><g><path d="M 29.84375 -39.808594 C 29.472656 -40.792969 28.734375 -41.65625 27.75 -42.457031 C 26.703125 -43.195312 25.472656 -43.625 24.058594 -43.625 C 22.582031 -43.625 21.351562 -43.195312 20.304688 -42.457031 C 19.257812 -41.71875 18.519531 -40.792969 18.152344 -39.808594 L 4.921875 -6.582031 C 4.675781 -6.03125 4.613281 -5.476562 4.613281 -4.859375 C 4.613281 -4.308594 4.675781 -3.753906 4.921875 -3.199219 C 5.167969 -2.585938 5.476562 -2.09375 5.90625 -1.660156 C 6.335938 -1.167969 6.890625 -0.800781 7.566406 -0.492188 C 8.183594 -0.183594 8.921875 -0.0625 9.785156 -0.0625 C 11.015625 -0.0625 12.058594 -0.371094 12.921875 -1.046875 C 13.722656 -1.660156 14.273438 -2.398438 14.644531 -3.261719 L 18.089844 -11.9375 C 18.152344 -12.058594 18.273438 -12.183594 18.398438 -12.304688 C 18.519531 -12.367188 18.707031 -12.429688 18.828125 -12.429688 L 29.226562 -12.429688 C 29.472656 -12.429688 29.71875 -12.246094 29.964844 -11.9375 L 33.347656 -3.261719 C 33.65625 -2.398438 34.210938 -1.660156 35.070312 -1.046875 C 35.871094 -0.371094 36.917969 -0.0625 38.210938 -0.0625 C 39.070312 -0.0625 39.808594 -0.183594 40.425781 -0.492188 C 41.039062 -0.800781 41.59375 -1.167969 42.085938 -1.660156 C 42.515625 -2.09375 42.824219 -2.585938 43.070312 -3.199219 C 43.316406 -3.753906 43.441406 -4.308594 43.441406 -4.859375 C 43.441406 -5.476562 43.316406 -6.089844 43.070312 -6.582031 Z M 23.996094 -26.640625 C 24.121094 -26.273438 24.242188 -25.964844 24.367188 -25.65625 C 24.488281 -25.289062 24.671875 -24.980469 24.796875 -24.613281 C 24.917969 -24.179688 25.105469 -23.8125 25.289062 -23.441406 C 25.410156 -23.074219 25.535156 -22.703125 25.65625 -22.398438 C 25.71875 -22.210938 25.78125 -22.089844 25.78125 -22.089844 L 22.089844 -22.089844 C 22.152344 -22.152344 22.210938 -22.210938 22.210938 -22.335938 C 22.457031 -23.074219 22.765625 -23.75 23.074219 -24.488281 C 23.320312 -25.226562 23.628906 -25.902344 23.996094 -26.640625 Z M 23.996094 -26.640625 "/></g></g></g><g fill="#000000" fill-opacity="0.302"><g transform="translate(53.684815, 186.938705)"><g><path d="M 20.058594 0.0625 C 23.257812 0.0625 26.210938 -0.429688 28.980469 -1.476562 C 31.75 -2.523438 34.148438 -4 36.179688 -5.90625 C 38.148438 -7.8125 39.75 -10.089844 40.917969 -12.796875 C 42.023438 -15.503906 42.640625 -18.460938 42.640625 -21.78125 C 42.640625 -25.042969 42.023438 -27.996094 40.917969 -30.703125 C 39.75 -33.410156 38.148438 -35.6875 36.179688 -37.59375 C 34.148438 -39.503906 31.75 -40.980469 29.042969 -42.023438 C 26.273438 -43.070312 23.257812 -43.625 20.058594 -43.625 L 9.84375 -43.625 C 8.984375 -43.625 8.183594 -43.441406 7.507812 -43.132812 C 6.828125 -42.824219 6.277344 -42.457031 5.84375 -41.964844 C 5.414062 -41.472656 5.105469 -40.980469 4.859375 -40.425781 C 4.613281 -39.808594 4.554688 -39.257812 4.554688 -38.703125 L 4.554688 -4.921875 C 4.554688 -4.367188 4.613281 -3.816406 4.859375 -3.199219 C 5.105469 -2.585938 5.414062 -2.09375 5.84375 -1.601562 C 6.277344 -1.109375 6.828125 -0.675781 7.507812 -0.371094 C 8.183594 -0.0625 8.984375 0.0625 9.84375 0.0625 Z M 20.058594 -9.722656 L 15.75 -9.722656 C 15.628906 -9.722656 15.445312 -9.785156 15.257812 -9.90625 C 15.011719 -10.03125 14.953125 -10.277344 14.953125 -10.644531 L 14.953125 -32.917969 C 14.953125 -33.226562 15.011719 -33.472656 15.257812 -33.65625 C 15.445312 -33.78125 15.628906 -33.902344 15.75 -33.902344 L 20.058594 -33.902344 C 22.027344 -33.902344 23.8125 -33.59375 25.351562 -32.980469 C 26.828125 -32.363281 28.121094 -31.503906 29.164062 -30.394531 C 30.148438 -29.289062 30.949219 -28.058594 31.441406 -26.582031 C 31.933594 -25.105469 32.242188 -23.503906 32.242188 -21.84375 C 32.242188 -20.121094 31.933594 -18.582031 31.441406 -17.105469 C 30.949219 -15.628906 30.148438 -14.335938 29.164062 -13.230469 C 28.121094 -12.121094 26.828125 -11.261719 25.351562 -10.644531 C 23.8125 -10.03125 22.027344 -9.722656 20.058594 -9.722656 Z M 20.058594 -9.722656 "/></g></g></g><g fill="#000000" fill-opacity="0.302"><g transform="translate(100.996335, 186.938705)"><g><path d="M 23.996094 -17.042969 L 14.644531 -40.488281 C 14.273438 -41.285156 13.722656 -42.023438 12.921875 -42.703125 C 12.058594 -43.316406 11.015625 -43.6875 9.785156 -43.6875 C 8.921875 -43.6875 8.183594 -43.5 7.566406 -43.195312 C 6.890625 -42.886719 6.335938 -42.515625 5.90625 -42.085938 C 5.476562 -41.59375 5.167969 -41.101562 4.921875 -40.546875 C 4.675781 -39.933594 4.613281 -39.378906 4.613281 -38.886719 C 4.613281 -38.332031 4.675781 -37.78125 4.921875 -37.164062 L 18.152344 -3.9375 C 18.519531 -2.953125 19.257812 -2.03125 20.304688 -1.292969 C 21.289062 -0.492188 22.519531 -0.125 23.996094 -0.125 C 25.410156 -0.125 26.640625 -0.492188 27.6875 -1.292969 C 28.671875 -2.03125 29.410156 -2.953125 29.78125 -3.9375 L 43.007812 -37.164062 C 43.253906 -37.71875 43.378906 -38.273438 43.378906 -38.886719 C 43.378906 -39.378906 43.253906 -39.933594 43.007812 -40.546875 C 42.761719 -41.101562 42.457031 -41.59375 42.023438 -42.085938 C 41.53125 -42.515625 40.980469 -42.886719 40.363281 -43.195312 C 39.75 -43.5 39.011719 -43.6875 38.148438 -43.6875 C 36.855469 -43.6875 35.808594 -43.316406 35.011719 -42.703125 C 34.148438 -42.023438 33.59375 -41.285156 33.289062 -40.488281 Z M 23.996094 -17.042969 "/></g></g></g><g fill="#000000" fill-opacity="0.302"><g transform="translate(148.984613, 186.938705)"><g><path d="M 29.84375 -39.808594 C 29.472656 -40.792969 28.734375 -41.65625 27.75 -42.457031 C 26.703125 -43.195312 25.472656 -43.625 24.058594 -43.625 C 22.582031 -43.625 21.351562 -43.195312 20.304688 -42.457031 C 19.257812 -41.71875 18.519531 -40.792969 18.152344 -39.808594 L 4.921875 -6.582031 C 4.675781 -6.03125 4.613281 -5.476562 4.613281 -4.859375 C 4.613281 -4.308594 4.675781 -3.753906 4.921875 -3.199219 C 5.167969 -2.585938 5.476562 -2.09375 5.90625 -1.660156 C 6.335938 -1.167969 6.890625 -0.800781 7.566406 -0.492188 C 8.183594 -0.183594 8.921875 -0.0625 9.785156 -0.0625 C 11.015625 -0.0625 12.058594 -0.371094 12.921875 -1.046875 C 13.722656 -1.660156 14.273438 -2.398438 14.644531 -3.261719 L 18.089844 -11.9375 C 18.152344 -12.058594 18.273438 -12.183594 18.398438 -12.304688 C 18.519531 -12.367188 18.707031 -12.429688 18.828125 -12.429688 L 29.226562 -12.429688 C 29.472656 -12.429688 29.71875 -12.246094 29.964844 -11.9375 L 33.347656 -3.261719 C 33.65625 -2.398438 34.210938 -1.660156 35.070312 -1.046875 C 35.871094 -0.371094 36.917969 -0.0625 38.210938 -0.0625 C 39.070312 -0.0625 39.808594 -0.183594 40.425781 -0.492188 C 41.039062 -0.800781 41.59375 -1.167969 42.085938 -1.660156 C 42.515625 -2.09375 42.824219 -2.585938 43.070312 -3.199219 C 43.316406 -3.753906 43.441406 -4.308594 43.441406 -4.859375 C 43.441406 -5.476562 43.316406 -6.089844 43.070312 -6.582031 Z M 23.996094 -26.640625 C 24.121094 -26.273438 24.242188 -25.964844 24.367188 -25.65625 C 24.488281 -25.289062 24.671875 -24.980469 24.796875 -24.613281 C 24.917969 -24.179688 25.105469 -23.8125 25.289062 -23.441406 C 25.410156 -23.074219 25.535156 -22.703125 25.65625 -22.398438 C 25.71875 -22.210938 25.78125 -22.089844 25.78125 -22.089844 L 22.089844 -22.089844 C 22.152344 -22.152344 22.210938 -22.210938 22.210938 -22.335938 C 22.457031 -23.074219 22.765625 -23.75 23.074219 -24.488281 C 23.320312 -25.226562 23.628906 -25.902344 23.996094 -26.640625 Z M 23.996094 -26.640625 "/></g></g></g><g fill="#000000" fill-opacity="0.302"><g transform="translate(196.972891, 186.938705)"><g><path d="M 14.890625 -24.980469 L 34.949219 -1.785156 C 35.378906 -1.230469 35.933594 -0.800781 36.671875 -0.429688 C 37.347656 -0.0625 38.148438 0.0625 39.011719 0.0625 C 39.871094 0.0625 40.609375 -0.0625 41.226562 -0.371094 C 41.839844 -0.675781 42.394531 -1.046875 42.824219 -1.539062 C 43.253906 -2.03125 43.5625 -2.523438 43.808594 -3.136719 C 44.054688 -3.691406 44.179688 -4.246094 44.179688 -4.800781 L 44.179688 -38.703125 C 44.179688 -39.195312 44.054688 -39.75 43.808594 -40.363281 C 43.5625 -40.917969 43.253906 -41.410156 42.824219 -41.902344 C 42.332031 -42.332031 41.777344 -42.703125 41.164062 -43.007812 C 40.546875 -43.316406 39.808594 -43.5 38.949219 -43.5 C 38.085938 -43.5 37.289062 -43.316406 36.671875 -43.007812 C 36.054688 -42.703125 35.503906 -42.332031 35.070312 -41.839844 C 34.578125 -41.347656 34.273438 -40.855469 34.027344 -40.300781 C 33.78125 -39.6875 33.71875 -39.132812 33.71875 -38.640625 L 33.71875 -18.828125 L 13.84375 -41.839844 C 13.351562 -42.332031 12.796875 -42.703125 12.121094 -43.070312 C 11.382812 -43.441406 10.644531 -43.625 9.785156 -43.625 C 8.921875 -43.625 8.121094 -43.441406 7.507812 -43.132812 C 6.890625 -42.824219 6.335938 -42.457031 5.90625 -41.964844 C 5.414062 -41.472656 5.105469 -40.980469 4.859375 -40.425781 C 4.613281 -39.808594 4.554688 -39.257812 4.554688 -38.703125 L 4.554688 -4.859375 C 4.554688 -4.308594 4.613281 -3.753906 4.859375 -3.199219 C 5.105469 -2.585938 5.414062 -2.09375 5.84375 -1.601562 C 6.277344 -1.109375 6.828125 -0.675781 7.445312 -0.371094 C 8.058594 -0.0625 8.859375 0.0625 9.722656 0.0625 C 10.582031 0.0625 11.320312 -0.0625 12 -0.371094 C 12.613281 -0.675781 13.167969 -1.046875 13.597656 -1.539062 C 14.027344 -2.03125 14.335938 -2.523438 14.582031 -3.136719 C 14.765625 -3.691406 14.890625 -4.246094 14.890625 -4.800781 Z M 14.890625 -24.980469 "/></g></g></g><g fill="#000000" fill-opacity="0.302"><g transform="translate(245.884021, 186.938705)"><g><path d="M 36.300781 -13.289062 C 34.949219 -12.058594 33.59375 -11.199219 32.179688 -10.644531 C 30.765625 -10.03125 29.105469 -9.785156 27.195312 -9.785156 C 25.164062 -9.785156 23.382812 -10.089844 21.90625 -10.707031 C 20.367188 -11.320312 19.074219 -12.121094 18.089844 -13.230469 C 17.042969 -14.335938 16.242188 -15.566406 15.75 -17.042969 C 15.257812 -18.519531 15.011719 -20.121094 15.011719 -21.84375 C 15.011719 -23.503906 15.257812 -25.105469 15.75 -26.582031 C 16.242188 -28.058594 17.042969 -29.289062 18.089844 -30.394531 C 19.074219 -31.503906 20.367188 -32.363281 21.90625 -32.980469 C 23.382812 -33.59375 25.164062 -33.902344 27.195312 -33.902344 C 28.671875 -33.902344 30.148438 -33.65625 31.625 -33.226562 C 33.101562 -32.734375 34.457031 -31.996094 35.5625 -31.011719 C 35.6875 -30.886719 35.808594 -30.828125 35.933594 -30.703125 L 36.300781 -30.335938 C 36.734375 -29.902344 37.226562 -29.535156 37.839844 -29.226562 C 38.394531 -28.917969 39.132812 -28.796875 40.054688 -28.796875 C 40.917969 -28.796875 41.65625 -28.917969 42.269531 -29.226562 C 42.886719 -29.535156 43.441406 -29.902344 43.933594 -30.394531 C 44.363281 -30.828125 44.671875 -31.320312 44.917969 -31.933594 C 45.164062 -32.550781 45.285156 -33.101562 45.285156 -33.65625 C 45.285156 -34.824219 44.855469 -35.933594 43.992188 -36.917969 C 43.007812 -38.027344 41.839844 -39.011719 40.488281 -39.871094 C 39.132812 -40.734375 37.78125 -41.410156 36.300781 -41.964844 C 34.824219 -42.515625 33.289062 -42.949219 31.75 -43.195312 C 30.148438 -43.441406 28.671875 -43.625 27.195312 -43.625 C 23.996094 -43.625 20.980469 -43.070312 18.210938 -42.023438 C 15.445312 -40.980469 13.042969 -39.503906 11.074219 -37.59375 C 9.042969 -35.6875 7.445312 -33.410156 6.335938 -30.765625 C 5.167969 -28.058594 4.613281 -25.105469 4.613281 -21.84375 C 4.613281 -18.519531 5.167969 -15.566406 6.335938 -12.859375 C 7.445312 -10.152344 9.042969 -7.875 11.074219 -5.96875 C 13.042969 -4.0625 15.445312 -2.585938 18.210938 -1.539062 C 20.980469 -0.492188 23.996094 0 27.195312 0 C 29.902344 0 32.488281 -0.371094 35.011719 -1.167969 C 37.535156 -1.96875 39.808594 -3.199219 41.839844 -4.800781 C 42.703125 -5.414062 43.441406 -6.152344 44.179688 -6.953125 C 44.917969 -7.753906 45.285156 -8.738281 45.285156 -9.96875 C 45.285156 -10.523438 45.164062 -11.074219 44.917969 -11.691406 C 44.671875 -12.246094 44.363281 -12.738281 43.933594 -13.230469 C 43.441406 -13.660156 42.886719 -14.027344 42.269531 -14.335938 C 41.65625 -14.644531 40.917969 -14.828125 40.054688 -14.828125 C 39.132812 -14.828125 38.394531 -14.644531 37.839844 -14.335938 C 37.226562 -14.027344 36.734375 -13.660156 36.300781 -13.289062 Z M 36.300781 -13.289062 "/></g></g></g><g fill="#000000" fill-opacity="0.302"><g transform="translate(295.841049, 186.938705)"><g><path d="M 9.785156 0 L 27.195312 0 C 28.058594 0 28.796875 -0.125 29.472656 -0.429688 C 30.089844 -0.738281 30.640625 -1.109375 31.074219 -1.601562 C 31.503906 -2.09375 31.8125 -2.585938 32.058594 -3.199219 C 32.242188 -3.753906 32.363281 -4.308594 32.363281 -4.859375 C 32.363281 -5.414062 32.242188 -5.96875 31.996094 -6.582031 C 31.75 -7.136719 31.441406 -7.628906 31.011719 -8.121094 C 30.519531 -8.550781 29.964844 -8.921875 29.351562 -9.230469 C 28.734375 -9.539062 27.996094 -9.722656 27.132812 -9.722656 L 15.691406 -9.722656 C 15.566406 -9.722656 15.382812 -9.785156 15.199219 -9.90625 C 14.953125 -10.03125 14.890625 -10.277344 14.890625 -10.644531 L 14.890625 -17.042969 C 14.890625 -17.351562 14.953125 -17.597656 15.199219 -17.78125 C 15.382812 -17.90625 15.566406 -18.027344 15.691406 -18.027344 L 23.933594 -18.027344 C 24.796875 -18.027344 25.535156 -18.152344 26.148438 -18.460938 C 26.765625 -18.765625 27.320312 -19.136719 27.75 -19.628906 C 28.179688 -20.121094 28.488281 -20.613281 28.734375 -21.226562 C 28.980469 -21.78125 29.105469 -22.335938 29.105469 -22.890625 C 29.105469 -23.441406 28.980469 -23.996094 28.734375 -24.613281 C 28.488281 -25.164062 28.179688 -25.65625 27.75 -26.148438 C 27.257812 -26.582031 26.703125 -26.949219 26.089844 -27.257812 C 25.472656 -27.566406 24.734375 -27.75 23.875 -27.75 L 15.628906 -27.75 C 15.503906 -27.75 15.320312 -27.8125 15.136719 -27.933594 C 14.890625 -28.058594 14.828125 -28.304688 14.828125 -28.671875 L 14.828125 -32.917969 C 14.828125 -33.226562 14.890625 -33.472656 15.136719 -33.65625 C 15.320312 -33.78125 15.503906 -33.902344 15.628906 -33.902344 L 27.074219 -33.902344 C 27.933594 -33.902344 28.671875 -34.027344 29.351562 -34.332031 C 29.964844 -34.640625 30.519531 -35.011719 30.949219 -35.503906 C 31.378906 -35.933594 31.6875 -36.425781 31.933594 -37.042969 C 32.117188 -37.59375 32.242188 -38.148438 32.242188 -38.703125 C 32.242188 -39.257812 32.117188 -39.808594 31.871094 -40.425781 C 31.625 -40.980469 31.320312 -41.472656 30.886719 -41.964844 C 30.394531 -42.394531 29.84375 -42.761719 29.226562 -43.070312 C 28.613281 -43.378906 27.875 -43.5625 27.011719 -43.5625 L 9.597656 -43.5625 C 8.738281 -43.5625 7.9375 -43.378906 7.320312 -43.070312 C 6.707031 -42.761719 6.152344 -42.394531 5.722656 -41.902344 C 5.230469 -41.410156 4.921875 -40.917969 4.675781 -40.363281 C 4.429688 -39.75 4.367188 -39.195312 4.367188 -38.703125 L 4.367188 -4.800781 C 4.367188 -4.183594 4.492188 -3.570312 4.738281 -3.015625 C 4.984375 -2.398438 5.351562 -1.90625 5.84375 -1.476562 C 6.335938 -0.984375 6.890625 -0.617188 7.566406 -0.371094 C 8.246094 -0.125 8.984375 0 9.785156 0 Z M 9.785156 0 "/></g></g></g><g fill="#000000" fill-opacity="0.302"><g transform="translate(332.878157, 186.938705)"><g><path d="M 20.058594 0.0625 C 23.257812 0.0625 26.210938 -0.429688 28.980469 -1.476562 C 31.75 -2.523438 34.148438 -4 36.179688 -5.90625 C 38.148438 -7.8125 39.75 -10.089844 40.917969 -12.796875 C 42.023438 -15.503906 42.640625 -18.460938 42.640625 -21.78125 C 42.640625 -25.042969 42.023438 -27.996094 40.917969 -30.703125 C 39.75 -33.410156 38.148438 -35.6875 36.179688 -37.59375 C 34.148438 -39.503906 31.75 -40.980469 29.042969 -42.023438 C 26.273438 -43.070312 23.257812 -43.625 20.058594 -43.625 L 9.84375 -43.625 C 8.984375 -43.625 8.183594 -43.441406 7.507812 -43.132812 C 6.828125 -42.824219 6.277344 -42.457031 5.84375 -41.964844 C 5.414062 -41.472656 5.105469 -40.980469 4.859375 -40.425781 C 4.613281 -39.808594 4.554688 -39.257812 4.554688 -38.703125 L 4.554688 -4.921875 C 4.554688 -4.367188 4.613281 -3.816406 4.859375 -3.199219 C 5.105469 -2.585938 5.414062 -2.09375 5.84375 -1.601562 C 6.277344 -1.109375 6.828125 -0.675781 7.507812 -0.371094 C 8.183594 -0.0625 8.984375 0.0625 9.84375 0.0625 Z M 20.058594 -9.722656 L 15.75 -9.722656 C 15.628906 -9.722656 15.445312 -9.785156 15.257812 -9.90625 C 15.011719 -10.03125 14.953125 -10.277344 14.953125 -10.644531 L 14.953125 -32.917969 C 14.953125 -33.226562 15.011719 -33.472656 15.257812 -33.65625 C 15.445312 -33.78125 15.628906 -33.902344 15.75 -33.902344 L 20.058594 -33.902344 C 22.027344 -33.902344 23.8125 -33.59375 25.351562 -32.980469 C 26.828125 -32.363281 28.121094 -31.503906 29.164062 -30.394531 C 30.148438 -29.289062 30.949219 -28.058594 31.441406 -26.582031 C 31.933594 -25.105469 32.242188 -23.503906 32.242188 -21.84375 C 32.242188 -20.121094 31.933594 -18.582031 31.441406 -17.105469 C 30.949219 -15.628906 30.148438 -14.335938 29.164062 -13.230469 C 28.121094 -12.121094 26.828125 -11.261719 25.351562 -10.644531 C 23.8125 -10.03125 22.027344 -9.722656 20.058594 -9.722656 Z M 20.058594 -9.722656 "/></g></g></g><g fill="#000000" fill-opacity="0.502"><g transform="translate(2.977177, 184.219354)"><g><path d="M 29.84375 -39.808594 C 29.472656 -40.792969 28.734375 -41.65625 27.75 -42.457031 C 26.703125 -43.195312 25.472656 -43.625 24.058594 -43.625 C 22.582031 -43.625 21.351562 -43.195312 20.304688 -42.457031 C 19.257812 -41.71875 18.519531 -40.792969 18.152344 -39.808594 L 4.921875 -6.582031 C 4.675781 -6.03125 4.613281 -5.476562 4.613281 -4.859375 C 4.613281 -4.308594 4.675781 -3.753906 4.921875 -3.199219 C 5.167969 -2.585938 5.476562 -2.09375 5.90625 -1.660156 C 6.335938 -1.167969 6.890625 -0.800781 7.566406 -0.492188 C 8.183594 -0.183594 8.921875 -0.0625 9.785156 -0.0625 C 11.015625 -0.0625 12.058594 -0.371094 12.921875 -1.046875 C 13.722656 -1.660156 14.273438 -2.398438 14.644531 -3.261719 L 18.089844 -11.9375 C 18.152344 -12.058594 18.273438 -12.183594 18.398438 -12.304688 C 18.519531 -12.367188 18.707031 -12.429688 18.828125 -12.429688 L 29.226562 -12.429688 C 29.472656 -12.429688 29.71875 -12.246094 29.964844 -11.9375 L 33.347656 -3.261719 C 33.65625 -2.398438 34.210938 -1.660156 35.070312 -1.046875 C 35.871094 -0.371094 36.917969 -0.0625 38.210938 -0.0625 C 39.070312 -0.0625 39.808594 -0.183594 40.425781 -0.492188 C 41.039062 -0.800781 41.59375 -1.167969 42.085938 -1.660156 C 42.515625 -2.09375 42.824219 -2.585938 43.070312 -3.199219 C 43.316406 -3.753906 43.441406 -4.308594 43.441406 -4.859375 C 43.441406 -5.476562 43.316406 -6.089844 43.070312 -6.582031 Z M 23.996094 -26.640625 C 24.121094 -26.273438 24.242188 -25.964844 24.367188 -25.65625 C 24.488281 -25.289062 24.671875 -24.980469 24.796875 -24.613281 C 24.917969 -24.179688 25.105469 -23.8125 25.289062 -23.441406 C 25.410156 -23.074219 25.535156 -22.703125 25.65625 -22.398438 C 25.71875 -22.210938 25.78125 -22.089844 25.78125 -22.089844 L 22.089844 -22.089844 C 22.152344 -22.152344 22.210938 -22.210938 22.210938 -22.335938 C 22.457031 -23.074219 22.765625 -23.75 23.074219 -24.488281 C 23.320312 -25.226562 23.628906 -25.902344 23.996094 -26.640625 Z M 23.996094 -26.640625 "/></g></g></g><g fill="#000000" fill-opacity="0.502"><g transform="translate(50.965455, 184.219354)"><g><path d="M 20.058594 0.0625 C 23.257812 0.0625 26.210938 -0.429688 28.980469 -1.476562 C 31.75 -2.523438 34.148438 -4 36.179688 -5.90625 C 38.148438 -7.8125 39.75 -10.089844 40.917969 -12.796875 C 42.023438 -15.503906 42.640625 -18.460938 42.640625 -21.78125 C 42.640625 -25.042969 42.023438 -27.996094 40.917969 -30.703125 C 39.75 -33.410156 38.148438 -35.6875 36.179688 -37.59375 C 34.148438 -39.503906 31.75 -40.980469 29.042969 -42.023438 C 26.273438 -43.070312 23.257812 -43.625 20.058594 -43.625 L 9.84375 -43.625 C 8.984375 -43.625 8.183594 -43.441406 7.507812 -43.132812 C 6.828125 -42.824219 6.277344 -42.457031 5.84375 -41.964844 C 5.414062 -41.472656 5.105469 -40.980469 4.859375 -40.425781 C 4.613281 -39.808594 4.554688 -39.257812 4.554688 -38.703125 L 4.554688 -4.921875 C 4.554688 -4.367188 4.613281 -3.816406 4.859375 -3.199219 C 5.105469 -2.585938 5.414062 -2.09375 5.84375 -1.601562 C 6.277344 -1.109375 6.828125 -0.675781 7.507812 -0.371094 C 8.183594 -0.0625 8.984375 0.0625 9.84375 0.0625 Z M 20.058594 -9.722656 L 15.75 -9.722656 C 15.628906 -9.722656 15.445312 -9.785156 15.257812 -9.90625 C 15.011719 -10.03125 14.953125 -10.277344 14.953125 -10.644531 L 14.953125 -32.917969 C 14.953125 -33.226562 15.011719 -33.472656 15.257812 -33.65625 C 15.445312 -33.78125 15.628906 -33.902344 15.75 -33.902344 L 20.058594 -33.902344 C 22.027344 -33.902344 23.8125 -33.59375 25.351562 -32.980469 C 26.828125 -32.363281 28.121094 -31.503906 29.164062 -30.394531 C 30.148438 -29.289062 30.949219 -28.058594 31.441406 -26.582031 C 31.933594 -25.105469 32.242188 -23.503906 32.242188 -21.84375 C 32.242188 -20.121094 31.933594 -18.582031 31.441406 -17.105469 C 30.949219 -15.628906 30.148438 -14.335938 29.164062 -13.230469 C 28.121094 -12.121094 26.828125 -11.261719 25.351562 -10.644531 C 23.8125 -10.03125 22.027344 -9.722656 20.058594 -9.722656 Z M 20.058594 -9.722656 "/></g></g></g><g fill="#000000" fill-opacity="0.502"><g transform="translate(98.276975, 184.219354)"><g><path d="M 23.996094 -17.042969 L 14.644531 -40.488281 C 14.273438 -41.285156 13.722656 -42.023438 12.921875 -42.703125 C 12.058594 -43.316406 11.015625 -43.6875 9.785156 -43.6875 C 8.921875 -43.6875 8.183594 -43.5 7.566406 -43.195312 C 6.890625 -42.886719 6.335938 -42.515625 5.90625 -42.085938 C 5.476562 -41.59375 5.167969 -41.101562 4.921875 -40.546875 C 4.675781 -39.933594 4.613281 -39.378906 4.613281 -38.886719 C 4.613281 -38.332031 4.675781 -37.78125 4.921875 -37.164062 L 18.152344 -3.9375 C 18.519531 -2.953125 19.257812 -2.03125 20.304688 -1.292969 C 21.289062 -0.492188 22.519531 -0.125 23.996094 -0.125 C 25.410156 -0.125 26.640625 -0.492188 27.6875 -1.292969 C 28.671875 -2.03125 29.410156 -2.953125 29.78125 -3.9375 L 43.007812 -37.164062 C 43.253906 -37.71875 43.378906 -38.273438 43.378906 -38.886719 C 43.378906 -39.378906 43.253906 -39.933594 43.007812 -40.546875 C 42.761719 -41.101562 42.457031 -41.59375 42.023438 -42.085938 C 41.53125 -42.515625 40.980469 -42.886719 40.363281 -43.195312 C 39.75 -43.5 39.011719 -43.6875 38.148438 -43.6875 C 36.855469 -43.6875 35.808594 -43.316406 35.011719 -42.703125 C 34.148438 -42.023438 33.59375 -41.285156 33.289062 -40.488281 Z M 23.996094 -17.042969 "/></g></g></g><g fill="#000000" fill-opacity="0.502"><g transform="translate(146.265253, 184.219354)"><g><path d="M 29.84375 -39.808594 C 29.472656 -40.792969 28.734375 -41.65625 27.75 -42.457031 C 26.703125 -43.195312 25.472656 -43.625 24.058594 -43.625 C 22.582031 -43.625 21.351562 -43.195312 20.304688 -42.457031 C 19.257812 -41.71875 18.519531 -40.792969 18.152344 -39.808594 L 4.921875 -6.582031 C 4.675781 -6.03125 4.613281 -5.476562 4.613281 -4.859375 C 4.613281 -4.308594 4.675781 -3.753906 4.921875 -3.199219 C 5.167969 -2.585938 5.476562 -2.09375 5.90625 -1.660156 C 6.335938 -1.167969 6.890625 -0.800781 7.566406 -0.492188 C 8.183594 -0.183594 8.921875 -0.0625 9.785156 -0.0625 C 11.015625 -0.0625 12.058594 -0.371094 12.921875 -1.046875 C 13.722656 -1.660156 14.273438 -2.398438 14.644531 -3.261719 L 18.089844 -11.9375 C 18.152344 -12.058594 18.273438 -12.183594 18.398438 -12.304688 C 18.519531 -12.367188 18.707031 -12.429688 18.828125 -12.429688 L 29.226562 -12.429688 C 29.472656 -12.429688 29.71875 -12.246094 29.964844 -11.9375 L 33.347656 -3.261719 C 33.65625 -2.398438 34.210938 -1.660156 35.070312 -1.046875 C 35.871094 -0.371094 36.917969 -0.0625 38.210938 -0.0625 C 39.070312 -0.0625 39.808594 -0.183594 40.425781 -0.492188 C 41.039062 -0.800781 41.59375 -1.167969 42.085938 -1.660156 C 42.515625 -2.09375 42.824219 -2.585938 43.070312 -3.199219 C 43.316406 -3.753906 43.441406 -4.308594 43.441406 -4.859375 C 43.441406 -5.476562 43.316406 -6.089844 43.070312 -6.582031 Z M 23.996094 -26.640625 C 24.121094 -26.273438 24.242188 -25.964844 24.367188 -25.65625 C 24.488281 -25.289062 24.671875 -24.980469 24.796875 -24.613281 C 24.917969 -24.179688 25.105469 -23.8125 25.289062 -23.441406 C 25.410156 -23.074219 25.535156 -22.703125 25.65625 -22.398438 C 25.71875 -22.210938 25.78125 -22.089844 25.78125 -22.089844 L 22.089844 -22.089844 C 22.152344 -22.152344 22.210938 -22.210938 22.210938 -22.335938 C 22.457031 -23.074219 22.765625 -23.75 23.074219 -24.488281 C 23.320312 -25.226562 23.628906 -25.902344 23.996094 -26.640625 Z M 23.996094 -26.640625 "/></g></g></g><g fill="#000000" fill-opacity="0.502"><g transform="translate(194.253531, 184.219354)"><g><path d="M 14.890625 -24.980469 L 34.949219 -1.785156 C 35.378906 -1.230469 35.933594 -0.800781 36.671875 -0.429688 C 37.347656 -0.0625 38.148438 0.0625 39.011719 0.0625 C 39.871094 0.0625 40.609375 -0.0625 41.226562 -0.371094 C 41.839844 -0.675781 42.394531 -1.046875 42.824219 -1.539062 C 43.253906 -2.03125 43.5625 -2.523438 43.808594 -3.136719 C 44.054688 -3.691406 44.179688 -4.246094 44.179688 -4.800781 L 44.179688 -38.703125 C 44.179688 -39.195312 44.054688 -39.75 43.808594 -40.363281 C 43.5625 -40.917969 43.253906 -41.410156 42.824219 -41.902344 C 42.332031 -42.332031 41.777344 -42.703125 41.164062 -43.007812 C 40.546875 -43.316406 39.808594 -43.5 38.949219 -43.5 C 38.085938 -43.5 37.289062 -43.316406 36.671875 -43.007812 C 36.054688 -42.703125 35.503906 -42.332031 35.070312 -41.839844 C 34.578125 -41.347656 34.273438 -40.855469 34.027344 -40.300781 C 33.78125 -39.6875 33.71875 -39.132812 33.71875 -38.640625 L 33.71875 -18.828125 L 13.84375 -41.839844 C 13.351562 -42.332031 12.796875 -42.703125 12.121094 -43.070312 C 11.382812 -43.441406 10.644531 -43.625 9.785156 -43.625 C 8.921875 -43.625 8.121094 -43.441406 7.507812 -43.132812 C 6.890625 -42.824219 6.335938 -42.457031 5.90625 -41.964844 C 5.414062 -41.472656 5.105469 -40.980469 4.859375 -40.425781 C 4.613281 -39.808594 4.554688 -39.257812 4.554688 -38.703125 L 4.554688 -4.859375 C 4.554688 -4.308594 4.613281 -3.753906 4.859375 -3.199219 C 5.105469 -2.585938 5.414062 -2.09375 5.84375 -1.601562 C 6.277344 -1.109375 6.828125 -0.675781 7.445312 -0.371094 C 8.058594 -0.0625 8.859375 0.0625 9.722656 0.0625 C 10.582031 0.0625 11.320312 -0.0625 12 -0.371094 C 12.613281 -0.675781 13.167969 -1.046875 13.597656 -1.539062 C 14.027344 -2.03125 14.335938 -2.523438 14.582031 -3.136719 C 14.765625 -3.691406 14.890625 -4.246094 14.890625 -4.800781 Z M 14.890625 -24.980469 "/></g></g></g><g fill="#000000" fill-opacity="0.502"><g transform="translate(243.164661, 184.219354)"><g><path d="M 36.300781 -13.289062 C 34.949219 -12.058594 33.59375 -11.199219 32.179688 -10.644531 C 30.765625 -10.03125 29.105469 -9.785156 27.195312 -9.785156 C 25.164062 -9.785156 23.382812 -10.089844 21.90625 -10.707031 C 20.367188 -11.320312 19.074219 -12.121094 18.089844 -13.230469 C 17.042969 -14.335938 16.242188 -15.566406 15.75 -17.042969 C 15.257812 -18.519531 15.011719 -20.121094 15.011719 -21.84375 C 15.011719 -23.503906 15.257812 -25.105469 15.75 -26.582031 C 16.242188 -28.058594 17.042969 -29.289062 18.089844 -30.394531 C 19.074219 -31.503906 20.367188 -32.363281 21.90625 -32.980469 C 23.382812 -33.59375 25.164062 -33.902344 27.195312 -33.902344 C 28.671875 -33.902344 30.148438 -33.65625 31.625 -33.226562 C 33.101562 -32.734375 34.457031 -31.996094 35.5625 -31.011719 C 35.6875 -30.886719 35.808594 -30.828125 35.933594 -30.703125 L 36.300781 -30.335938 C 36.734375 -29.902344 37.226562 -29.535156 37.839844 -29.226562 C 38.394531 -28.917969 39.132812 -28.796875 40.054688 -28.796875 C 40.917969 -28.796875 41.65625 -28.917969 42.269531 -29.226562 C 42.886719 -29.535156 43.441406 -29.902344 43.933594 -30.394531 C 44.363281 -30.828125 44.671875 -31.320312 44.917969 -31.933594 C 45.164062 -32.550781 45.285156 -33.101562 45.285156 -33.65625 C 45.285156 -34.824219 44.855469 -35.933594 43.992188 -36.917969 C 43.007812 -38.027344 41.839844 -39.011719 40.488281 -39.871094 C 39.132812 -40.734375 37.78125 -41.410156 36.300781 -41.964844 C 34.824219 -42.515625 33.289062 -42.949219 31.75 -43.195312 C 30.148438 -43.441406 28.671875 -43.625 27.195312 -43.625 C 23.996094 -43.625 20.980469 -43.070312 18.210938 -42.023438 C 15.445312 -40.980469 13.042969 -39.503906 11.074219 -37.59375 C 9.042969 -35.6875 7.445312 -33.410156 6.335938 -30.765625 C 5.167969 -28.058594 4.613281 -25.105469 4.613281 -21.84375 C 4.613281 -18.519531 5.167969 -15.566406 6.335938 -12.859375 C 7.445312 -10.152344 9.042969 -7.875 11.074219 -5.96875 C 13.042969 -4.0625 15.445312 -2.585938 18.210938 -1.539062 C 20.980469 -0.492188 23.996094 0 27.195312 0 C 29.902344 0 32.488281 -0.371094 35.011719 -1.167969 C 37.535156 -1.96875 39.808594 -3.199219 41.839844 -4.800781 C 42.703125 -5.414062 43.441406 -6.152344 44.179688 -6.953125 C 44.917969 -7.753906 45.285156 -8.738281 45.285156 -9.96875 C 45.285156 -10.523438 45.164062 -11.074219 44.917969 -11.691406 C 44.671875 -12.246094 44.363281 -12.738281 43.933594 -13.230469 C 43.441406 -13.660156 42.886719 -14.027344 42.269531 -14.335938 C 41.65625 -14.644531 40.917969 -14.828125 40.054688 -14.828125 C 39.132812 -14.828125 38.394531 -14.644531 37.839844 -14.335938 C 37.226562 -14.027344 36.734375 -13.660156 36.300781 -13.289062 Z M 36.300781 -13.289062 "/></g></g></g><g fill="#000000" fill-opacity="0.502"><g transform="translate(293.121689, 184.219354)"><g><path d="M 9.785156 0 L 27.195312 0 C 28.058594 0 28.796875 -0.125 29.472656 -0.429688 C 30.089844 -0.738281 30.640625 -1.109375 31.074219 -1.601562 C 31.503906 -2.09375 31.8125 -2.585938 32.058594 -3.199219 C 32.242188 -3.753906 32.363281 -4.308594 32.363281 -4.859375 C 32.363281 -5.414062 32.242188 -5.96875 31.996094 -6.582031 C 31.75 -7.136719 31.441406 -7.628906 31.011719 -8.121094 C 30.519531 -8.550781 29.964844 -8.921875 29.351562 -9.230469 C 28.734375 -9.539062 27.996094 -9.722656 27.132812 -9.722656 L 15.691406 -9.722656 C 15.566406 -9.722656 15.382812 -9.785156 15.199219 -9.90625 C 14.953125 -10.03125 14.890625 -10.277344 14.890625 -10.644531 L 14.890625 -17.042969 C 14.890625 -17.351562 14.953125 -17.597656 15.199219 -17.78125 C 15.382812 -17.90625 15.566406 -18.027344 15.691406 -18.027344 L 23.933594 -18.027344 C 24.796875 -18.027344 25.535156 -18.152344 26.148438 -18.460938 C 26.765625 -18.765625 27.320312 -19.136719 27.75 -19.628906 C 28.179688 -20.121094 28.488281 -20.613281 28.734375 -21.226562 C 28.980469 -21.78125 29.105469 -22.335938 29.105469 -22.890625 C 29.105469 -23.441406 28.980469 -23.996094 28.734375 -24.613281 C 28.488281 -25.164062 28.179688 -25.65625 27.75 -26.148438 C 27.257812 -26.582031 26.703125 -26.949219 26.089844 -27.257812 C 25.472656 -27.566406 24.734375 -27.75 23.875 -27.75 L 15.628906 -27.75 C 15.503906 -27.75 15.320312 -27.8125 15.136719 -27.933594 C 14.890625 -28.058594 14.828125 -28.304688 14.828125 -28.671875 L 14.828125 -32.917969 C 14.828125 -33.226562 14.890625 -33.472656 15.136719 -33.65625 C 15.320312 -33.78125 15.503906 -33.902344 15.628906 -33.902344 L 27.074219 -33.902344 C 27.933594 -33.902344 28.671875 -34.027344 29.351562 -34.332031 C 29.964844 -34.640625 30.519531 -35.011719 30.949219 -35.503906 C 31.378906 -35.933594 31.6875 -36.425781 31.933594 -37.042969 C 32.117188 -37.59375 32.242188 -38.148438 32.242188 -38.703125 C 32.242188 -39.257812 32.117188 -39.808594 31.871094 -40.425781 C 31.625 -40.980469 31.320312 -41.472656 30.886719 -41.964844 C 30.394531 -42.394531 29.84375 -42.761719 29.226562 -43.070312 C 28.613281 -43.378906 27.875 -43.5625 27.011719 -43.5625 L 9.597656 -43.5625 C 8.738281 -43.5625 7.9375 -43.378906 7.320312 -43.070312 C 6.707031 -42.761719 6.152344 -42.394531 5.722656 -41.902344 C 5.230469 -41.410156 4.921875 -40.917969 4.675781 -40.363281 C 4.429688 -39.75 4.367188 -39.195312 4.367188 -38.703125 L 4.367188 -4.800781 C 4.367188 -4.183594 4.492188 -3.570312 4.738281 -3.015625 C 4.984375 -2.398438 5.351562 -1.90625 5.84375 -1.476562 C 6.335938 -0.984375 6.890625 -0.617188 7.566406 -0.371094 C 8.246094 -0.125 8.984375 0 9.785156 0 Z M 9.785156 0 "/></g></g></g><g fill="#000000" fill-opacity="0.502"><g transform="translate(330.158797, 184.219354)"><g><path d="M 20.058594 0.0625 C 23.257812 0.0625 26.210938 -0.429688 28.980469 -1.476562 C 31.75 -2.523438 34.148438 -4 36.179688 -5.90625 C 38.148438 -7.8125 39.75 -10.089844 40.917969 -12.796875 C 42.023438 -15.503906 42.640625 -18.460938 42.640625 -21.78125 C 42.640625 -25.042969 42.023438 -27.996094 40.917969 -30.703125 C 39.75 -33.410156 38.148438 -35.6875 36.179688 -37.59375 C 34.148438 -39.503906 31.75 -40.980469 29.042969 -42.023438 C 26.273438 -43.070312 23.257812 -43.625 20.058594 -43.625 L 9.84375 -43.625 C 8.984375 -43.625 8.183594 -43.441406 7.507812 -43.132812 C 6.828125 -42.824219 6.277344 -42.457031 5.84375 -41.964844 C 5.414062 -41.472656 5.105469 -40.980469 4.859375 -40.425781 C 4.613281 -39.808594 4.554688 -39.257812 4.554688 -38.703125 L 4.554688 -4.921875 C 4.554688 -4.367188 4.613281 -3.816406 4.859375 -3.199219 C 5.105469 -2.585938 5.414062 -2.09375 5.84375 -1.601562 C 6.277344 -1.109375 6.828125 -0.675781 7.507812 -0.371094 C 8.183594 -0.0625 8.984375 0.0625 9.84375 0.0625 Z M 20.058594 -9.722656 L 15.75 -9.722656 C 15.628906 -9.722656 15.445312 -9.785156 15.257812 -9.90625 C 15.011719 -10.03125 14.953125 -10.277344 14.953125 -10.644531 L 14.953125 -32.917969 C 14.953125 -33.226562 15.011719 -33.472656 15.257812 -33.65625 C 15.445312 -33.78125 15.628906 -33.902344 15.75 -33.902344 L 20.058594 -33.902344 C 22.027344 -33.902344 23.8125 -33.59375 25.351562 -32.980469 C 26.828125 -32.363281 28.121094 -31.503906 29.164062 -30.394531 C 30.148438 -29.289062 30.949219 -28.058594 31.441406 -26.582031 C 31.933594 -25.105469 32.242188 -23.503906 32.242188 -21.84375 C 32.242188 -20.121094 31.933594 -18.582031 31.441406 -17.105469 C 30.949219 -15.628906 30.148438 -14.335938 29.164062 -13.230469 C 28.121094 -12.121094 26.828125 -11.261719 25.351562 -10.644531 C 23.8125 -10.03125 22.027344 -9.722656 20.058594 -9.722656 Z M 20.058594 -9.722656 "/></g></g></g><g fill="#ffffff" fill-opacity="1"><g transform="translate(0.257817, 181.499988)"><g><path d="M 29.84375 -39.808594 C 29.472656 -40.792969 28.734375 -41.65625 27.75 -42.457031 C 26.703125 -43.195312 25.472656 -43.625 24.058594 -43.625 C 22.582031 -43.625 21.351562 -43.195312 20.304688 -42.457031 C 19.257812 -41.71875 18.519531 -40.792969 18.152344 -39.808594 L 4.921875 -6.582031 C 4.675781 -6.03125 4.613281 -5.476562 4.613281 -4.859375 C 4.613281 -4.308594 4.675781 -3.753906 4.921875 -3.199219 C 5.167969 -2.585938 5.476562 -2.09375 5.90625 -1.660156 C 6.335938 -1.167969 6.890625 -0.800781 7.566406 -0.492188 C 8.183594 -0.183594 8.921875 -0.0625 9.785156 -0.0625 C 11.015625 -0.0625 12.058594 -0.371094 12.921875 -1.046875 C 13.722656 -1.660156 14.273438 -2.398438 14.644531 -3.261719 L 18.089844 -11.9375 C 18.152344 -12.058594 18.273438 -12.183594 18.398438 -12.304688 C 18.519531 -12.367188 18.707031 -12.429688 18.828125 -12.429688 L 29.226562 -12.429688 C 29.472656 -12.429688 29.71875 -12.246094 29.964844 -11.9375 L 33.347656 -3.261719 C 33.65625 -2.398438 34.210938 -1.660156 35.070312 -1.046875 C 35.871094 -0.371094 36.917969 -0.0625 38.210938 -0.0625 C 39.070312 -0.0625 39.808594 -0.183594 40.425781 -0.492188 C 41.039062 -0.800781 41.59375 -1.167969 42.085938 -1.660156 C 42.515625 -2.09375 42.824219 -2.585938 43.070312 -3.199219 C 43.316406 -3.753906 43.441406 -4.308594 43.441406 -4.859375 C 43.441406 -5.476562 43.316406 -6.089844 43.070312 -6.582031 Z M 23.996094 -26.640625 C 24.121094 -26.273438 24.242188 -25.964844 24.367188 -25.65625 C 24.488281 -25.289062 24.671875 -24.980469 24.796875 -24.613281 C 24.917969 -24.179688 25.105469 -23.8125 25.289062 -23.441406 C 25.410156 -23.074219 25.535156 -22.703125 25.65625 -22.398438 C 25.71875 -22.210938 25.78125 -22.089844 25.78125 -22.089844 L 22.089844 -22.089844 C 22.152344 -22.152344 22.210938 -22.210938 22.210938 -22.335938 C 22.457031 -23.074219 22.765625 -23.75 23.074219 -24.488281 C 23.320312 -25.226562 23.628906 -25.902344 23.996094 -26.640625 Z M 23.996094 -26.640625 "/></g></g></g><g fill="#ffffff" fill-opacity="1"><g transform="translate(48.246095, 181.499988)"><g><path d="M 20.058594 0.0625 C 23.257812 0.0625 26.210938 -0.429688 28.980469 -1.476562 C 31.75 -2.523438 34.148438 -4 36.179688 -5.90625 C 38.148438 -7.8125 39.75 -10.089844 40.917969 -12.796875 C 42.023438 -15.503906 42.640625 -18.460938 42.640625 -21.78125 C 42.640625 -25.042969 42.023438 -27.996094 40.917969 -30.703125 C 39.75 -33.410156 38.148438 -35.6875 36.179688 -37.59375 C 34.148438 -39.503906 31.75 -40.980469 29.042969 -42.023438 C 26.273438 -43.070312 23.257812 -43.625 20.058594 -43.625 L 9.84375 -43.625 C 8.984375 -43.625 8.183594 -43.441406 7.507812 -43.132812 C 6.828125 -42.824219 6.277344 -42.457031 5.84375 -41.964844 C 5.414062 -41.472656 5.105469 -40.980469 4.859375 -40.425781 C 4.613281 -39.808594 4.554688 -39.257812 4.554688 -38.703125 L 4.554688 -4.921875 C 4.554688 -4.367188 4.613281 -3.816406 4.859375 -3.199219 C 5.105469 -2.585938 5.414062 -2.09375 5.84375 -1.601562 C 6.277344 -1.109375 6.828125 -0.675781 7.507812 -0.371094 C 8.183594 -0.0625 8.984375 0.0625 9.84375 0.0625 Z M 20.058594 -9.722656 L 15.75 -9.722656 C 15.628906 -9.722656 15.445312 -9.785156 15.257812 -9.90625 C 15.011719 -10.03125 14.953125 -10.277344 14.953125 -10.644531 L 14.953125 -32.917969 C 14.953125 -33.226562 15.011719 -33.472656 15.257812 -33.65625 C 15.445312 -33.78125 15.628906 -33.902344 15.75 -33.902344 L 20.058594 -33.902344 C 22.027344 -33.902344 23.8125 -33.59375 25.351562 -32.980469 C 26.828125 -32.363281 28.121094 -31.503906 29.164062 -30.394531 C 30.148438 -29.289062 30.949219 -28.058594 31.441406 -26.582031 C 31.933594 -25.105469 32.242188 -23.503906 32.242188 -21.84375 C 32.242188 -20.121094 31.933594 -18.582031 31.441406 -17.105469 C 30.949219 -15.628906 30.148438 -14.335938 29.164062 -13.230469 C 28.121094 -12.121094 26.828125 -11.261719 25.351562 -10.644531 C 23.8125 -10.03125 22.027344 -9.722656 20.058594 -9.722656 Z M 20.058594 -9.722656 "/></g></g></g><g fill="#ffffff" fill-opacity="1"><g transform="translate(95.557615, 181.499988)"><g><path d="M 23.996094 -17.042969 L 14.644531 -40.488281 C 14.273438 -41.285156 13.722656 -42.023438 12.921875 -42.703125 C 12.058594 -43.316406 11.015625 -43.6875 9.785156 -43.6875 C 8.921875 -43.6875 8.183594 -43.5 7.566406 -43.195312 C 6.890625 -42.886719 6.335938 -42.515625 5.90625 -42.085938 C 5.476562 -41.59375 5.167969 -41.101562 4.921875 -40.546875 C 4.675781 -39.933594 4.613281 -39.378906 4.613281 -38.886719 C 4.613281 -38.332031 4.675781 -37.78125 4.921875 -37.164062 L 18.152344 -3.9375 C 18.519531 -2.953125 19.257812 -2.03125 20.304688 -1.292969 C 21.289062 -0.492188 22.519531 -0.125 23.996094 -0.125 C 25.410156 -0.125 26.640625 -0.492188 27.6875 -1.292969 C 28.671875 -2.03125 29.410156 -2.953125 29.78125 -3.9375 L 43.007812 -37.164062 C 43.253906 -37.71875 43.378906 -38.273438 43.378906 -38.886719 C 43.378906 -39.378906 43.253906 -39.933594 43.007812 -40.546875 C 42.761719 -41.101562 42.457031 -41.59375 42.023438 -42.085938 C 41.53125 -42.515625 40.980469 -42.886719 40.363281 -43.195312 C 39.75 -43.5 39.011719 -43.6875 38.148438 -43.6875 C 36.855469 -43.6875 35.808594 -43.316406 35.011719 -42.703125 C 34.148438 -42.023438 33.59375 -41.285156 33.289062 -40.488281 Z M 23.996094 -17.042969 "/></g></g></g><g fill="#ffffff" fill-opacity="1"><g transform="translate(143.545893, 181.499988)"><g><path d="M 29.84375 -39.808594 C 29.472656 -40.792969 28.734375 -41.65625 27.75 -42.457031 C 26.703125 -43.195312 25.472656 -43.625 24.058594 -43.625 C 22.582031 -43.625 21.351562 -43.195312 20.304688 -42.457031 C 19.257812 -41.71875 18.519531 -40.792969 18.152344 -39.808594 L 4.921875 -6.582031 C 4.675781 -6.03125 4.613281 -5.476562 4.613281 -4.859375 C 4.613281 -4.308594 4.675781 -3.753906 4.921875 -3.199219 C 5.167969 -2.585938 5.476562 -2.09375 5.90625 -1.660156 C 6.335938 -1.167969 6.890625 -0.800781 7.566406 -0.492188 C 8.183594 -0.183594 8.921875 -0.0625 9.785156 -0.0625 C 11.015625 -0.0625 12.058594 -0.371094 12.921875 -1.046875 C 13.722656 -1.660156 14.273438 -2.398438 14.644531 -3.261719 L 18.089844 -11.9375 C 18.152344 -12.058594 18.273438 -12.183594 18.398438 -12.304688 C 18.519531 -12.367188 18.707031 -12.429688 18.828125 -12.429688 L 29.226562 -12.429688 C 29.472656 -12.429688 29.71875 -12.246094 29.964844 -11.9375 L 33.347656 -3.261719 C 33.65625 -2.398438 34.210938 -1.660156 35.070312 -1.046875 C 35.871094 -0.371094 36.917969 -0.0625 38.210938 -0.0625 C 39.070312 -0.0625 39.808594 -0.183594 40.425781 -0.492188 C 41.039062 -0.800781 41.59375 -1.167969 42.085938 -1.660156 C 42.515625 -2.09375 42.824219 -2.585938 43.070312 -3.199219 C 43.316406 -3.753906 43.441406 -4.308594 43.441406 -4.859375 C 43.441406 -5.476562 43.316406 -6.089844 43.070312 -6.582031 Z M 23.996094 -26.640625 C 24.121094 -26.273438 24.242188 -25.964844 24.367188 -25.65625 C 24.488281 -25.289062 24.671875 -24.980469 24.796875 -24.613281 C 24.917969 -24.179688 25.105469 -23.8125 25.289062 -23.441406 C 25.410156 -23.074219 25.535156 -22.703125 25.65625 -22.398438 C 25.71875 -22.210938 25.78125 -22.089844 25.78125 -22.089844 L 22.089844 -22.089844 C 22.152344 -22.152344 22.210938 -22.210938 22.210938 -22.335938 C 22.457031 -23.074219 22.765625 -23.75 23.074219 -24.488281 C 23.320312 -25.226562 23.628906 -25.902344 23.996094 -26.640625 Z M 23.996094 -26.640625 "/></g></g></g><g fill="#ffffff" fill-opacity="1"><g transform="translate(191.534171, 181.499988)"><g><path d="M 14.890625 -24.980469 L 34.949219 -1.785156 C 35.378906 -1.230469 35.933594 -0.800781 36.671875 -0.429688 C 37.347656 -0.0625 38.148438 0.0625 39.011719 0.0625 C 39.871094 0.0625 40.609375 -0.0625 41.226562 -0.371094 C 41.839844 -0.675781 42.394531 -1.046875 42.824219 -1.539062 C 43.253906 -2.03125 43.5625 -2.523438 43.808594 -3.136719 C 44.054688 -3.691406 44.179688 -4.246094 44.179688 -4.800781 L 44.179688 -38.703125 C 44.179688 -39.195312 44.054688 -39.75 43.808594 -40.363281 C 43.5625 -40.917969 43.253906 -41.410156 42.824219 -41.902344 C 42.332031 -42.332031 41.777344 -42.703125 41.164062 -43.007812 C 40.546875 -43.316406 39.808594 -43.5 38.949219 -43.5 C 38.085938 -43.5 37.289062 -43.316406 36.671875 -43.007812 C 36.054688 -42.703125 35.503906 -42.332031 35.070312 -41.839844 C 34.578125 -41.347656 34.273438 -40.855469 34.027344 -40.300781 C 33.78125 -39.6875 33.71875 -39.132812 33.71875 -38.640625 L 33.71875 -18.828125 L 13.84375 -41.839844 C 13.351562 -42.332031 12.796875 -42.703125 12.121094 -43.070312 C 11.382812 -43.441406 10.644531 -43.625 9.785156 -43.625 C 8.921875 -43.625 8.121094 -43.441406 7.507812 -43.132812 C 6.890625 -42.824219 6.335938 -42.457031 5.90625 -41.964844 C 5.414062 -41.472656 5.105469 -40.980469 4.859375 -40.425781 C 4.613281 -39.808594 4.554688 -39.257812 4.554688 -38.703125 L 4.554688 -4.859375 C 4.554688 -4.308594 4.613281 -3.753906 4.859375 -3.199219 C 5.105469 -2.585938 5.414062 -2.09375 5.84375 -1.601562 C 6.277344 -1.109375 6.828125 -0.675781 7.445312 -0.371094 C 8.058594 -0.0625 8.859375 0.0625 9.722656 0.0625 C 10.582031 0.0625 11.320312 -0.0625 12 -0.371094 C 12.613281 -0.675781 13.167969 -1.046875 13.597656 -1.539062 C 14.027344 -2.03125 14.335938 -2.523438 14.582031 -3.136719 C 14.765625 -3.691406 14.890625 -4.246094 14.890625 -4.800781 Z M 14.890625 -24.980469 "/></g></g></g><g fill="#ffffff" fill-opacity="1"><g transform="translate(240.445301, 181.499988)"><g><path d="M 36.300781 -13.289062 C 34.949219 -12.058594 33.59375 -11.199219 32.179688 -10.644531 C 30.765625 -10.03125 29.105469 -9.785156 27.195312 -9.785156 C 25.164062 -9.785156 23.382812 -10.089844 21.90625 -10.707031 C 20.367188 -11.320312 19.074219 -12.121094 18.089844 -13.230469 C 17.042969 -14.335938 16.242188 -15.566406 15.75 -17.042969 C 15.257812 -18.519531 15.011719 -20.121094 15.011719 -21.84375 C 15.011719 -23.503906 15.257812 -25.105469 15.75 -26.582031 C 16.242188 -28.058594 17.042969 -29.289062 18.089844 -30.394531 C 19.074219 -31.503906 20.367188 -32.363281 21.90625 -32.980469 C 23.382812 -33.59375 25.164062 -33.902344 27.195312 -33.902344 C 28.671875 -33.902344 30.148438 -33.65625 31.625 -33.226562 C 33.101562 -32.734375 34.457031 -31.996094 35.5625 -31.011719 C 35.6875 -30.886719 35.808594 -30.828125 35.933594 -30.703125 L 36.300781 -30.335938 C 36.734375 -29.902344 37.226562 -29.535156 37.839844 -29.226562 C 38.394531 -28.917969 39.132812 -28.796875 40.054688 -28.796875 C 40.917969 -28.796875 41.65625 -28.917969 42.269531 -29.226562 C 42.886719 -29.535156 43.441406 -29.902344 43.933594 -30.394531 C 44.363281 -30.828125 44.671875 -31.320312 44.917969 -31.933594 C 45.164062 -32.550781 45.285156 -33.101562 45.285156 -33.65625 C 45.285156 -34.824219 44.855469 -35.933594 43.992188 -36.917969 C 43.007812 -38.027344 41.839844 -39.011719 40.488281 -39.871094 C 39.132812 -40.734375 37.78125 -41.410156 36.300781 -41.964844 C 34.824219 -42.515625 33.289062 -42.949219 31.75 -43.195312 C 30.148438 -43.441406 28.671875 -43.625 27.195312 -43.625 C 23.996094 -43.625 20.980469 -43.070312 18.210938 -42.023438 C 15.445312 -40.980469 13.042969 -39.503906 11.074219 -37.59375 C 9.042969 -35.6875 7.445312 -33.410156 6.335938 -30.765625 C 5.167969 -28.058594 4.613281 -25.105469 4.613281 -21.84375 C 4.613281 -18.519531 5.167969 -15.566406 6.335938 -12.859375 C 7.445312 -10.152344 9.042969 -7.875 11.074219 -5.96875 C 13.042969 -4.0625 15.445312 -2.585938 18.210938 -1.539062 C 20.980469 -0.492188 23.996094 0 27.195312 0 C 29.902344 0 32.488281 -0.371094 35.011719 -1.167969 C 37.535156 -1.96875 39.808594 -3.199219 41.839844 -4.800781 C 42.703125 -5.414062 43.441406 -6.152344 44.179688 -6.953125 C 44.917969 -7.753906 45.285156 -8.738281 45.285156 -9.96875 C 45.285156 -10.523438 45.164062 -11.074219 44.917969 -11.691406 C 44.671875 -12.246094 44.363281 -12.738281 43.933594 -13.230469 C 43.441406 -13.660156 42.886719 -14.027344 42.269531 -14.335938 C 41.65625 -14.644531 40.917969 -14.828125 40.054688 -14.828125 C 39.132812 -14.828125 38.394531 -14.644531 37.839844 -14.335938 C 37.226562 -14.027344 36.734375 -13.660156 36.300781 -13.289062 Z M 36.300781 -13.289062 "/></g></g></g><g fill="#ffffff" fill-opacity="1"><g transform="translate(290.402329, 181.499988)"><g><path d="M 9.785156 0 L 27.195312 0 C 28.058594 0 28.796875 -0.125 29.472656 -0.429688 C 30.089844 -0.738281 30.640625 -1.109375 31.074219 -1.601562 C 31.503906 -2.09375 31.8125 -2.585938 32.058594 -3.199219 C 32.242188 -3.753906 32.363281 -4.308594 32.363281 -4.859375 C 32.363281 -5.414062 32.242188 -5.96875 31.996094 -6.582031 C 31.75 -7.136719 31.441406 -7.628906 31.011719 -8.121094 C 30.519531 -8.550781 29.964844 -8.921875 29.351562 -9.230469 C 28.734375 -9.539062 27.996094 -9.722656 27.132812 -9.722656 L 15.691406 -9.722656 C 15.566406 -9.722656 15.382812 -9.785156 15.199219 -9.90625 C 14.953125 -10.03125 14.890625 -10.277344 14.890625 -10.644531 L 14.890625 -17.042969 C 14.890625 -17.351562 14.953125 -17.597656 15.199219 -17.78125 C 15.382812 -17.90625 15.566406 -18.027344 15.691406 -18.027344 L 23.933594 -18.027344 C 24.796875 -18.027344 25.535156 -18.152344 26.148438 -18.460938 C 26.765625 -18.765625 27.320312 -19.136719 27.75 -19.628906 C 28.179688 -20.121094 28.488281 -20.613281 28.734375 -21.226562 C 28.980469 -21.78125 29.105469 -22.335938 29.105469 -22.890625 C 29.105469 -23.441406 28.980469 -23.996094 28.734375 -24.613281 C 28.488281 -25.164062 28.179688 -25.65625 27.75 -26.148438 C 27.257812 -26.582031 26.703125 -26.949219 26.089844 -27.257812 C 25.472656 -27.566406 24.734375 -27.75 23.875 -27.75 L 15.628906 -27.75 C 15.503906 -27.75 15.320312 -27.8125 15.136719 -27.933594 C 14.890625 -28.058594 14.828125 -28.304688 14.828125 -28.671875 L 14.828125 -32.917969 C 14.828125 -33.226562 14.890625 -33.472656 15.136719 -33.65625 C 15.320312 -33.78125 15.503906 -33.902344 15.628906 -33.902344 L 27.074219 -33.902344 C 27.933594 -33.902344 28.671875 -34.027344 29.351562 -34.332031 C 29.964844 -34.640625 30.519531 -35.011719 30.949219 -35.503906 C 31.378906 -35.933594 31.6875 -36.425781 31.933594 -37.042969 C 32.117188 -37.59375 32.242188 -38.148438 32.242188 -38.703125 C 32.242188 -39.257812 32.117188 -39.808594 31.871094 -40.425781 C 31.625 -40.980469 31.320312 -41.472656 30.886719 -41.964844 C 30.394531 -42.394531 29.84375 -42.761719 29.226562 -43.070312 C 28.613281 -43.378906 27.875 -43.5625 27.011719 -43.5625 L 9.597656 -43.5625 C 8.738281 -43.5625 7.9375 -43.378906 7.320312 -43.070312 C 6.707031 -42.761719 6.152344 -42.394531 5.722656 -41.902344 C 5.230469 -41.410156 4.921875 -40.917969 4.675781 -40.363281 C 4.429688 -39.75 4.367188 -39.195312 4.367188 -38.703125 L 4.367188 -4.800781 C 4.367188 -4.183594 4.492188 -3.570312 4.738281 -3.015625 C 4.984375 -2.398438 5.351562 -1.90625 5.84375 -1.476562 C 6.335938 -0.984375 6.890625 -0.617188 7.566406 -0.371094 C 8.246094 -0.125 8.984375 0 9.785156 0 Z M 9.785156 0 "/></g></g></g><g fill="#ffffff" fill-opacity="1"><g transform="translate(327.439436, 181.499988)"><g><path d="M 20.058594 0.0625 C 23.257812 0.0625 26.210938 -0.429688 28.980469 -1.476562 C 31.75 -2.523438 34.148438 -4 36.179688 -5.90625 C 38.148438 -7.8125 39.75 -10.089844 40.917969 -12.796875 C 42.023438 -15.503906 42.640625 -18.460938 42.640625 -21.78125 C 42.640625 -25.042969 42.023438 -27.996094 40.917969 -30.703125 C 39.75 -33.410156 38.148438 -35.6875 36.179688 -37.59375 C 34.148438 -39.503906 31.75 -40.980469 29.042969 -42.023438 C 26.273438 -43.070312 23.257812 -43.625 20.058594 -43.625 L 9.84375 -43.625 C 8.984375 -43.625 8.183594 -43.441406 7.507812 -43.132812 C 6.828125 -42.824219 6.277344 -42.457031 5.84375 -41.964844 C 5.414062 -41.472656 5.105469 -40.980469 4.859375 -40.425781 C 4.613281 -39.808594 4.554688 -39.257812 4.554688 -38.703125 L 4.554688 -4.921875 C 4.554688 -4.367188 4.613281 -3.816406 4.859375 -3.199219 C 5.105469 -2.585938 5.414062 -2.09375 5.84375 -1.601562 C 6.277344 -1.109375 6.828125 -0.675781 7.507812 -0.371094 C 8.183594 -0.0625 8.984375 0.0625 9.84375 0.0625 Z M 20.058594 -9.722656 L 15.75 -9.722656 C 15.628906 -9.722656 15.445312 -9.785156 15.257812 -9.90625 C 15.011719 -10.03125 14.953125 -10.277344 14.953125 -10.644531 L 14.953125 -32.917969 C 14.953125 -33.226562 15.011719 -33.472656 15.257812 -33.65625 C 15.445312 -33.78125 15.628906 -33.902344 15.75 -33.902344 L 20.058594 -33.902344 C 22.027344 -33.902344 23.8125 -33.59375 25.351562 -32.980469 C 26.828125 -32.363281 28.121094 -31.503906 29.164062 -30.394531 C 30.148438 -29.289062 30.949219 -28.058594 31.441406 -26.582031 C 31.933594 -25.105469 32.242188 -23.503906 32.242188 -21.84375 C 32.242188 -20.121094 31.933594 -18.582031 31.441406 -17.105469 C 30.949219 -15.628906 30.148438 -14.335938 29.164062 -13.230469 C 28.121094 -12.121094 26.828125 -11.261719 25.351562 -10.644531 C 23.8125 -10.03125 22.027344 -9.722656 20.058594 -9.722656 Z M 20.058594 -9.722656 "/></g></g></g><g fill="#000000" fill-opacity="0.302"><g transform="translate(103.548093, 241.688701)"><g><path d="M 9.722656 -43.5 C 8.859375 -43.5 8.058594 -43.316406 7.445312 -43.007812 C 6.828125 -42.703125 6.277344 -42.332031 5.84375 -41.839844 C 5.351562 -41.347656 5.046875 -40.855469 4.800781 -40.300781 C 4.554688 -39.6875 4.492188 -39.132812 4.492188 -38.640625 C 4.492188 -38.027344 4.613281 -37.410156 4.859375 -36.855469 C 5.105469 -36.300781 5.414062 -35.808594 5.90625 -35.378906 C 6.335938 -34.886719 6.890625 -34.519531 7.566406 -34.273438 C 8.183594 -34.027344 8.921875 -33.902344 9.785156 -33.902344 L 16.921875 -33.902344 C 17.042969 -33.902344 17.226562 -33.78125 17.414062 -33.65625 C 17.597656 -33.472656 17.71875 -33.226562 17.71875 -32.917969 L 17.71875 -4.859375 C 17.71875 -4.308594 17.78125 -3.753906 18.027344 -3.199219 C 18.273438 -2.585938 18.582031 -2.09375 19.011719 -1.601562 C 19.445312 -1.109375 19.996094 -0.675781 20.613281 -0.371094 C 21.226562 -0.0625 22.027344 0.0625 22.890625 0.0625 C 23.75 0.0625 24.488281 -0.0625 25.164062 -0.371094 C 25.78125 -0.675781 26.335938 -1.046875 26.765625 -1.539062 C 27.195312 -2.03125 27.503906 -2.523438 27.75 -3.136719 C 27.933594 -3.691406 28.058594 -4.246094 28.058594 -4.800781 L 28.058594 -32.855469 C 28.058594 -33.164062 28.121094 -33.410156 28.367188 -33.59375 C 28.550781 -33.71875 28.734375 -33.839844 28.859375 -33.839844 L 35.996094 -33.839844 C 36.855469 -33.839844 37.59375 -33.964844 38.273438 -34.273438 C 38.886719 -34.578125 39.441406 -34.949219 39.871094 -35.441406 C 40.300781 -35.871094 40.609375 -36.363281 40.855469 -36.980469 C 41.039062 -37.59375 41.164062 -38.148438 41.164062 -38.703125 C 41.164062 -39.195312 41.039062 -39.75 40.792969 -40.363281 C 40.546875 -40.917969 40.242188 -41.410156 39.808594 -41.902344 C 39.316406 -42.332031 38.765625 -42.703125 38.148438 -43.007812 C 37.535156 -43.316406 36.796875 -43.5 35.933594 -43.5 Z M 9.722656 -43.5 "/></g></g></g><g fill="#000000" fill-opacity="0.302"><g transform="translate(149.444575, 241.688701)"><g><path d="M 9.785156 0 L 27.195312 0 C 28.058594 0 28.796875 -0.125 29.472656 -0.429688 C 30.089844 -0.738281 30.640625 -1.109375 31.074219 -1.601562 C 31.503906 -2.09375 31.8125 -2.585938 32.058594 -3.199219 C 32.242188 -3.753906 32.363281 -4.308594 32.363281 -4.859375 C 32.363281 -5.414062 32.242188 -5.96875 31.996094 -6.582031 C 31.75 -7.136719 31.441406 -7.628906 31.011719 -8.121094 C 30.519531 -8.550781 29.964844 -8.921875 29.351562 -9.230469 C 28.734375 -9.539062 27.996094 -9.722656 27.132812 -9.722656 L 15.691406 -9.722656 C 15.566406 -9.722656 15.382812 -9.785156 15.199219 -9.90625 C 14.953125 -10.03125 14.890625 -10.277344 14.890625 -10.644531 L 14.890625 -17.042969 C 14.890625 -17.351562 14.953125 -17.597656 15.199219 -17.78125 C 15.382812 -17.90625 15.566406 -18.027344 15.691406 -18.027344 L 23.933594 -18.027344 C 24.796875 -18.027344 25.535156 -18.152344 26.148438 -18.460938 C 26.765625 -18.765625 27.320312 -19.136719 27.75 -19.628906 C 28.179688 -20.121094 28.488281 -20.613281 28.734375 -21.226562 C 28.980469 -21.78125 29.105469 -22.335938 29.105469 -22.890625 C 29.105469 -23.441406 28.980469 -23.996094 28.734375 -24.613281 C 28.488281 -25.164062 28.179688 -25.65625 27.75 -26.148438 C 27.257812 -26.582031 26.703125 -26.949219 26.089844 -27.257812 C 25.472656 -27.566406 24.734375 -27.75 23.875 -27.75 L 15.628906 -27.75 C 15.503906 -27.75 15.320312 -27.8125 15.136719 -27.933594 C 14.890625 -28.058594 14.828125 -28.304688 14.828125 -28.671875 L 14.828125 -32.917969 C 14.828125 -33.226562 14.890625 -33.472656 15.136719 -33.65625 C 15.320312 -33.78125 15.503906 -33.902344 15.628906 -33.902344 L 27.074219 -33.902344 C 27.933594 -33.902344 28.671875 -34.027344 29.351562 -34.332031 C 29.964844 -34.640625 30.519531 -35.011719 30.949219 -35.503906 C 31.378906 -35.933594 31.6875 -36.425781 31.933594 -37.042969 C 32.117188 -37.59375 32.242188 -38.148438 32.242188 -38.703125 C 32.242188 -39.257812 32.117188 -39.808594 31.871094 -40.425781 C 31.625 -40.980469 31.320312 -41.472656 30.886719 -41.964844 C 30.394531 -42.394531 29.84375 -42.761719 29.226562 -43.070312 C 28.613281 -43.378906 27.875 -43.5625 27.011719 -43.5625 L 9.597656 -43.5625 C 8.738281 -43.5625 7.9375 -43.378906 7.320312 -43.070312 C 6.707031 -42.761719 6.152344 -42.394531 5.722656 -41.902344 C 5.230469 -41.410156 4.921875 -40.917969 4.675781 -40.363281 C 4.429688 -39.75 4.367188 -39.195312 4.367188 -38.703125 L 4.367188 -4.800781 C 4.367188 -4.183594 4.492188 -3.570312 4.738281 -3.015625 C 4.984375 -2.398438 5.351562 -1.90625 5.84375 -1.476562 C 6.335938 -0.984375 6.890625 -0.617188 7.566406 -0.371094 C 8.246094 -0.125 8.984375 0 9.785156 0 Z M 9.785156 0 "/></g></g></g><g fill="#000000" fill-opacity="0.302"><g transform="translate(186.481682, 241.688701)"><g><path d="M 36.300781 -13.289062 C 34.949219 -12.058594 33.59375 -11.199219 32.179688 -10.644531 C 30.765625 -10.03125 29.105469 -9.785156 27.195312 -9.785156 C 25.164062 -9.785156 23.382812 -10.089844 21.90625 -10.707031 C 20.367188 -11.320312 19.074219 -12.121094 18.089844 -13.230469 C 17.042969 -14.335938 16.242188 -15.566406 15.75 -17.042969 C 15.257812 -18.519531 15.011719 -20.121094 15.011719 -21.84375 C 15.011719 -23.503906 15.257812 -25.105469 15.75 -26.582031 C 16.242188 -28.058594 17.042969 -29.289062 18.089844 -30.394531 C 19.074219 -31.503906 20.367188 -32.363281 21.90625 -32.980469 C 23.382812 -33.59375 25.164062 -33.902344 27.195312 -33.902344 C 28.671875 -33.902344 30.148438 -33.65625 31.625 -33.226562 C 33.101562 -32.734375 34.457031 -31.996094 35.5625 -31.011719 C 35.6875 -30.886719 35.808594 -30.828125 35.933594 -30.703125 L 36.300781 -30.335938 C 36.734375 -29.902344 37.226562 -29.535156 37.839844 -29.226562 C 38.394531 -28.917969 39.132812 -28.796875 40.054688 -28.796875 C 40.917969 -28.796875 41.65625 -28.917969 42.269531 -29.226562 C 42.886719 -29.535156 43.441406 -29.902344 43.933594 -30.394531 C 44.363281 -30.828125 44.671875 -31.320312 44.917969 -31.933594 C 45.164062 -32.550781 45.285156 -33.101562 45.285156 -33.65625 C 45.285156 -34.824219 44.855469 -35.933594 43.992188 -36.917969 C 43.007812 -38.027344 41.839844 -39.011719 40.488281 -39.871094 C 39.132812 -40.734375 37.78125 -41.410156 36.300781 -41.964844 C 34.824219 -42.515625 33.289062 -42.949219 31.75 -43.195312 C 30.148438 -43.441406 28.671875 -43.625 27.195312 -43.625 C 23.996094 -43.625 20.980469 -43.070312 18.210938 -42.023438 C 15.445312 -40.980469 13.042969 -39.503906 11.074219 -37.59375 C 9.042969 -35.6875 7.445312 -33.410156 6.335938 -30.765625 C 5.167969 -28.058594 4.613281 -25.105469 4.613281 -21.84375 C 4.613281 -18.519531 5.167969 -15.566406 6.335938 -12.859375 C 7.445312 -10.152344 9.042969 -7.875 11.074219 -5.96875 C 13.042969 -4.0625 15.445312 -2.585938 18.210938 -1.539062 C 20.980469 -0.492188 23.996094 0 27.195312 0 C 29.902344 0 32.488281 -0.371094 35.011719 -1.167969 C 37.535156 -1.96875 39.808594 -3.199219 41.839844 -4.800781 C 42.703125 -5.414062 43.441406 -6.152344 44.179688 -6.953125 C 44.917969 -7.753906 45.285156 -8.738281 45.285156 -9.96875 C 45.285156 -10.523438 45.164062 -11.074219 44.917969 -11.691406 C 44.671875 -12.246094 44.363281 -12.738281 43.933594 -13.230469 C 43.441406 -13.660156 42.886719 -14.027344 42.269531 -14.335938 C 41.65625 -14.644531 40.917969 -14.828125 40.054688 -14.828125 C 39.132812 -14.828125 38.394531 -14.644531 37.839844 -14.335938 C 37.226562 -14.027344 36.734375 -13.660156 36.300781 -13.289062 Z M 36.300781 -13.289062 "/></g></g></g><g fill="#000000" fill-opacity="0.302"><g transform="translate(236.43871, 241.688701)"><g><path d="M 30.089844 -28.425781 L 15.8125 -28.425781 C 15.691406 -28.425781 15.503906 -28.488281 15.320312 -28.671875 C 15.074219 -28.796875 15.011719 -29.042969 15.011719 -29.410156 L 15.011719 -38.765625 C 15.011719 -39.316406 14.890625 -39.871094 14.644531 -40.488281 C 14.398438 -41.039062 14.089844 -41.53125 13.660156 -42.023438 C 13.167969 -42.457031 12.613281 -42.824219 12 -43.132812 C 11.382812 -43.441406 10.644531 -43.625 9.785156 -43.625 C 8.921875 -43.625 8.121094 -43.441406 7.507812 -43.132812 C 6.890625 -42.824219 6.335938 -42.457031 5.90625 -41.964844 C 5.414062 -41.472656 5.105469 -40.980469 4.859375 -40.425781 C 4.613281 -39.808594 4.554688 -39.257812 4.554688 -38.703125 L 4.554688 -4.859375 C 4.554688 -4.308594 4.613281 -3.753906 4.859375 -3.199219 C 5.105469 -2.585938 5.414062 -2.09375 5.84375 -1.601562 C 6.277344 -1.109375 6.828125 -0.675781 7.445312 -0.371094 C 8.058594 -0.0625 8.859375 0.0625 9.722656 0.0625 C 10.582031 0.0625 11.320312 -0.0625 12 -0.371094 C 12.613281 -0.675781 13.167969 -1.046875 13.597656 -1.539062 C 14.027344 -2.03125 14.335938 -2.523438 14.582031 -3.136719 C 14.765625 -3.691406 14.890625 -4.246094 14.890625 -4.800781 L 14.890625 -17.660156 C 14.890625 -17.964844 14.953125 -18.210938 15.199219 -18.398438 C 15.382812 -18.519531 15.566406 -18.644531 15.691406 -18.644531 L 29.964844 -18.644531 C 30.089844 -18.644531 30.273438 -18.519531 30.457031 -18.398438 C 30.640625 -18.210938 30.765625 -17.964844 30.765625 -17.660156 L 30.765625 -4.800781 C 30.765625 -4.246094 30.828125 -3.691406 31.074219 -3.136719 C 31.320312 -2.523438 31.625 -2.03125 32.058594 -1.539062 C 32.488281 -1.046875 33.042969 -0.617188 33.65625 -0.308594 C 34.273438 0 35.070312 0.125 35.933594 0.125 C 36.796875 0.125 37.535156 0 38.210938 -0.308594 C 38.824219 -0.617188 39.378906 -0.984375 39.808594 -1.476562 C 40.242188 -1.96875 40.546875 -2.460938 40.792969 -3.078125 C 40.980469 -3.628906 41.101562 -4.183594 41.101562 -4.738281 L 41.101562 -38.640625 C 41.101562 -39.132812 40.980469 -39.6875 40.734375 -40.300781 C 40.488281 -40.855469 40.179688 -41.347656 39.75 -41.839844 C 39.257812 -42.269531 38.703125 -42.640625 38.085938 -42.949219 C 37.472656 -43.253906 36.734375 -43.441406 35.871094 -43.441406 C 35.011719 -43.441406 34.210938 -43.253906 33.59375 -42.949219 C 32.980469 -42.640625 32.425781 -42.269531 31.996094 -41.777344 C 31.503906 -41.285156 31.195312 -40.792969 30.949219 -40.242188 C 30.703125 -39.625 30.640625 -39.070312 30.640625 -38.578125 L 30.640625 -29.164062 C 30.640625 -28.796875 30.582031 -28.613281 30.457031 -28.550781 C 30.335938 -28.425781 30.210938 -28.425781 30.089844 -28.425781 Z M 30.089844 -28.425781 "/></g></g></g><g fill="#000000" fill-opacity="0.502"><g transform="translate(100.828733, 238.96935)"><g><path d="M 9.722656 -43.5 C 8.859375 -43.5 8.058594 -43.316406 7.445312 -43.007812 C 6.828125 -42.703125 6.277344 -42.332031 5.84375 -41.839844 C 5.351562 -41.347656 5.046875 -40.855469 4.800781 -40.300781 C 4.554688 -39.6875 4.492188 -39.132812 4.492188 -38.640625 C 4.492188 -38.027344 4.613281 -37.410156 4.859375 -36.855469 C 5.105469 -36.300781 5.414062 -35.808594 5.90625 -35.378906 C 6.335938 -34.886719 6.890625 -34.519531 7.566406 -34.273438 C 8.183594 -34.027344 8.921875 -33.902344 9.785156 -33.902344 L 16.921875 -33.902344 C 17.042969 -33.902344 17.226562 -33.78125 17.414062 -33.65625 C 17.597656 -33.472656 17.71875 -33.226562 17.71875 -32.917969 L 17.71875 -4.859375 C 17.71875 -4.308594 17.78125 -3.753906 18.027344 -3.199219 C 18.273438 -2.585938 18.582031 -2.09375 19.011719 -1.601562 C 19.445312 -1.109375 19.996094 -0.675781 20.613281 -0.371094 C 21.226562 -0.0625 22.027344 0.0625 22.890625 0.0625 C 23.75 0.0625 24.488281 -0.0625 25.164062 -0.371094 C 25.78125 -0.675781 26.335938 -1.046875 26.765625 -1.539062 C 27.195312 -2.03125 27.503906 -2.523438 27.75 -3.136719 C 27.933594 -3.691406 28.058594 -4.246094 28.058594 -4.800781 L 28.058594 -32.855469 C 28.058594 -33.164062 28.121094 -33.410156 28.367188 -33.59375 C 28.550781 -33.71875 28.734375 -33.839844 28.859375 -33.839844 L 35.996094 -33.839844 C 36.855469 -33.839844 37.59375 -33.964844 38.273438 -34.273438 C 38.886719 -34.578125 39.441406 -34.949219 39.871094 -35.441406 C 40.300781 -35.871094 40.609375 -36.363281 40.855469 -36.980469 C 41.039062 -37.59375 41.164062 -38.148438 41.164062 -38.703125 C 41.164062 -39.195312 41.039062 -39.75 40.792969 -40.363281 C 40.546875 -40.917969 40.242188 -41.410156 39.808594 -41.902344 C 39.316406 -42.332031 38.765625 -42.703125 38.148438 -43.007812 C 37.535156 -43.316406 36.796875 -43.5 35.933594 -43.5 Z M 9.722656 -43.5 "/></g></g></g><g fill="#000000" fill-opacity="0.502"><g transform="translate(146.725215, 238.96935)"><g><path d="M 9.785156 0 L 27.195312 0 C 28.058594 0 28.796875 -0.125 29.472656 -0.429688 C 30.089844 -0.738281 30.640625 -1.109375 31.074219 -1.601562 C 31.503906 -2.09375 31.8125 -2.585938 32.058594 -3.199219 C 32.242188 -3.753906 32.363281 -4.308594 32.363281 -4.859375 C 32.363281 -5.414062 32.242188 -5.96875 31.996094 -6.582031 C 31.75 -7.136719 31.441406 -7.628906 31.011719 -8.121094 C 30.519531 -8.550781 29.964844 -8.921875 29.351562 -9.230469 C 28.734375 -9.539062 27.996094 -9.722656 27.132812 -9.722656 L 15.691406 -9.722656 C 15.566406 -9.722656 15.382812 -9.785156 15.199219 -9.90625 C 14.953125 -10.03125 14.890625 -10.277344 14.890625 -10.644531 L 14.890625 -17.042969 C 14.890625 -17.351562 14.953125 -17.597656 15.199219 -17.78125 C 15.382812 -17.90625 15.566406 -18.027344 15.691406 -18.027344 L 23.933594 -18.027344 C 24.796875 -18.027344 25.535156 -18.152344 26.148438 -18.460938 C 26.765625 -18.765625 27.320312 -19.136719 27.75 -19.628906 C 28.179688 -20.121094 28.488281 -20.613281 28.734375 -21.226562 C 28.980469 -21.78125 29.105469 -22.335938 29.105469 -22.890625 C 29.105469 -23.441406 28.980469 -23.996094 28.734375 -24.613281 C 28.488281 -25.164062 28.179688 -25.65625 27.75 -26.148438 C 27.257812 -26.582031 26.703125 -26.949219 26.089844 -27.257812 C 25.472656 -27.566406 24.734375 -27.75 23.875 -27.75 L 15.628906 -27.75 C 15.503906 -27.75 15.320312 -27.8125 15.136719 -27.933594 C 14.890625 -28.058594 14.828125 -28.304688 14.828125 -28.671875 L 14.828125 -32.917969 C 14.828125 -33.226562 14.890625 -33.472656 15.136719 -33.65625 C 15.320312 -33.78125 15.503906 -33.902344 15.628906 -33.902344 L 27.074219 -33.902344 C 27.933594 -33.902344 28.671875 -34.027344 29.351562 -34.332031 C 29.964844 -34.640625 30.519531 -35.011719 30.949219 -35.503906 C 31.378906 -35.933594 31.6875 -36.425781 31.933594 -37.042969 C 32.117188 -37.59375 32.242188 -38.148438 32.242188 -38.703125 C 32.242188 -39.257812 32.117188 -39.808594 31.871094 -40.425781 C 31.625 -40.980469 31.320312 -41.472656 30.886719 -41.964844 C 30.394531 -42.394531 29.84375 -42.761719 29.226562 -43.070312 C 28.613281 -43.378906 27.875 -43.5625 27.011719 -43.5625 L 9.597656 -43.5625 C 8.738281 -43.5625 7.9375 -43.378906 7.320312 -43.070312 C 6.707031 -42.761719 6.152344 -42.394531 5.722656 -41.902344 C 5.230469 -41.410156 4.921875 -40.917969 4.675781 -40.363281 C 4.429688 -39.75 4.367188 -39.195312 4.367188 -38.703125 L 4.367188 -4.800781 C 4.367188 -4.183594 4.492188 -3.570312 4.738281 -3.015625 C 4.984375 -2.398438 5.351562 -1.90625 5.84375 -1.476562 C 6.335938 -0.984375 6.890625 -0.617188 7.566406 -0.371094 C 8.246094 -0.125 8.984375 0 9.785156 0 Z M 9.785156 0 "/></g></g></g><g fill="#000000" fill-opacity="0.502"><g transform="translate(183.762322, 238.96935)"><g><path d="M 36.300781 -13.289062 C 34.949219 -12.058594 33.59375 -11.199219 32.179688 -10.644531 C 30.765625 -10.03125 29.105469 -9.785156 27.195312 -9.785156 C 25.164062 -9.785156 23.382812 -10.089844 21.90625 -10.707031 C 20.367188 -11.320312 19.074219 -12.121094 18.089844 -13.230469 C 17.042969 -14.335938 16.242188 -15.566406 15.75 -17.042969 C 15.257812 -18.519531 15.011719 -20.121094 15.011719 -21.84375 C 15.011719 -23.503906 15.257812 -25.105469 15.75 -26.582031 C 16.242188 -28.058594 17.042969 -29.289062 18.089844 -30.394531 C 19.074219 -31.503906 20.367188 -32.363281 21.90625 -32.980469 C 23.382812 -33.59375 25.164062 -33.902344 27.195312 -33.902344 C 28.671875 -33.902344 30.148438 -33.65625 31.625 -33.226562 C 33.101562 -32.734375 34.457031 -31.996094 35.5625 -31.011719 C 35.6875 -30.886719 35.808594 -30.828125 35.933594 -30.703125 L 36.300781 -30.335938 C 36.734375 -29.902344 37.226562 -29.535156 37.839844 -29.226562 C 38.394531 -28.917969 39.132812 -28.796875 40.054688 -28.796875 C 40.917969 -28.796875 41.65625 -28.917969 42.269531 -29.226562 C 42.886719 -29.535156 43.441406 -29.902344 43.933594 -30.394531 C 44.363281 -30.828125 44.671875 -31.320312 44.917969 -31.933594 C 45.164062 -32.550781 45.285156 -33.101562 45.285156 -33.65625 C 45.285156 -34.824219 44.855469 -35.933594 43.992188 -36.917969 C 43.007812 -38.027344 41.839844 -39.011719 40.488281 -39.871094 C 39.132812 -40.734375 37.78125 -41.410156 36.300781 -41.964844 C 34.824219 -42.515625 33.289062 -42.949219 31.75 -43.195312 C 30.148438 -43.441406 28.671875 -43.625 27.195312 -43.625 C 23.996094 -43.625 20.980469 -43.070312 18.210938 -42.023438 C 15.445312 -40.980469 13.042969 -39.503906 11.074219 -37.59375 C 9.042969 -35.6875 7.445312 -33.410156 6.335938 -30.765625 C 5.167969 -28.058594 4.613281 -25.105469 4.613281 -21.84375 C 4.613281 -18.519531 5.167969 -15.566406 6.335938 -12.859375 C 7.445312 -10.152344 9.042969 -7.875 11.074219 -5.96875 C 13.042969 -4.0625 15.445312 -2.585938 18.210938 -1.539062 C 20.980469 -0.492188 23.996094 0 27.195312 0 C 29.902344 0 32.488281 -0.371094 35.011719 -1.167969 C 37.535156 -1.96875 39.808594 -3.199219 41.839844 -4.800781 C 42.703125 -5.414062 43.441406 -6.152344 44.179688 -6.953125 C 44.917969 -7.753906 45.285156 -8.738281 45.285156 -9.96875 C 45.285156 -10.523438 45.164062 -11.074219 44.917969 -11.691406 C 44.671875 -12.246094 44.363281 -12.738281 43.933594 -13.230469 C 43.441406 -13.660156 42.886719 -14.027344 42.269531 -14.335938 C 41.65625 -14.644531 40.917969 -14.828125 40.054688 -14.828125 C 39.132812 -14.828125 38.394531 -14.644531 37.839844 -14.335938 C 37.226562 -14.027344 36.734375 -13.660156 36.300781 -13.289062 Z M 36.300781 -13.289062 "/></g></g></g><g fill="#000000" fill-opacity="0.502"><g transform="translate(233.71935, 238.96935)"><g><path d="M 30.089844 -28.425781 L 15.8125 -28.425781 C 15.691406 -28.425781 15.503906 -28.488281 15.320312 -28.671875 C 15.074219 -28.796875 15.011719 -29.042969 15.011719 -29.410156 L 15.011719 -38.765625 C 15.011719 -39.316406 14.890625 -39.871094 14.644531 -40.488281 C 14.398438 -41.039062 14.089844 -41.53125 13.660156 -42.023438 C 13.167969 -42.457031 12.613281 -42.824219 12 -43.132812 C 11.382812 -43.441406 10.644531 -43.625 9.785156 -43.625 C 8.921875 -43.625 8.121094 -43.441406 7.507812 -43.132812 C 6.890625 -42.824219 6.335938 -42.457031 5.90625 -41.964844 C 5.414062 -41.472656 5.105469 -40.980469 4.859375 -40.425781 C 4.613281 -39.808594 4.554688 -39.257812 4.554688 -38.703125 L 4.554688 -4.859375 C 4.554688 -4.308594 4.613281 -3.753906 4.859375 -3.199219 C 5.105469 -2.585938 5.414062 -2.09375 5.84375 -1.601562 C 6.277344 -1.109375 6.828125 -0.675781 7.445312 -0.371094 C 8.058594 -0.0625 8.859375 0.0625 9.722656 0.0625 C 10.582031 0.0625 11.320312 -0.0625 12 -0.371094 C 12.613281 -0.675781 13.167969 -1.046875 13.597656 -1.539062 C 14.027344 -2.03125 14.335938 -2.523438 14.582031 -3.136719 C 14.765625 -3.691406 14.890625 -4.246094 14.890625 -4.800781 L 14.890625 -17.660156 C 14.890625 -17.964844 14.953125 -18.210938 15.199219 -18.398438 C 15.382812 -18.519531 15.566406 -18.644531 15.691406 -18.644531 L 29.964844 -18.644531 C 30.089844 -18.644531 30.273438 -18.519531 30.457031 -18.398438 C 30.640625 -18.210938 30.765625 -17.964844 30.765625 -17.660156 L 30.765625 -4.800781 C 30.765625 -4.246094 30.828125 -3.691406 31.074219 -3.136719 C 31.320312 -2.523438 31.625 -2.03125 32.058594 -1.539062 C 32.488281 -1.046875 33.042969 -0.617188 33.65625 -0.308594 C 34.273438 0 35.070312 0.125 35.933594 0.125 C 36.796875 0.125 37.535156 0 38.210938 -0.308594 C 38.824219 -0.617188 39.378906 -0.984375 39.808594 -1.476562 C 40.242188 -1.96875 40.546875 -2.460938 40.792969 -3.078125 C 40.980469 -3.628906 41.101562 -4.183594 41.101562 -4.738281 L 41.101562 -38.640625 C 41.101562 -39.132812 40.980469 -39.6875 40.734375 -40.300781 C 40.488281 -40.855469 40.179688 -41.347656 39.75 -41.839844 C 39.257812 -42.269531 38.703125 -42.640625 38.085938 -42.949219 C 37.472656 -43.253906 36.734375 -43.441406 35.871094 -43.441406 C 35.011719 -43.441406 34.210938 -43.253906 33.59375 -42.949219 C 32.980469 -42.640625 32.425781 -42.269531 31.996094 -41.777344 C 31.503906 -41.285156 31.195312 -40.792969 30.949219 -40.242188 C 30.703125 -39.625 30.640625 -39.070312 30.640625 -38.578125 L 30.640625 -29.164062 C 30.640625 -28.796875 30.582031 -28.613281 30.457031 -28.550781 C 30.335938 -28.425781 30.210938 -28.425781 30.089844 -28.425781 Z M 30.089844 -28.425781 "/></g></g></g><g fill="#ffffff" fill-opacity="1"><g transform="translate(98.109373, 236.249984)"><g><path d="M 9.722656 -43.5 C 8.859375 -43.5 8.058594 -43.316406 7.445312 -43.007812 C 6.828125 -42.703125 6.277344 -42.332031 5.84375 -41.839844 C 5.351562 -41.347656 5.046875 -40.855469 4.800781 -40.300781 C 4.554688 -39.6875 4.492188 -39.132812 4.492188 -38.640625 C 4.492188 -38.027344 4.613281 -37.410156 4.859375 -36.855469 C 5.105469 -36.300781 5.414062 -35.808594 5.90625 -35.378906 C 6.335938 -34.886719 6.890625 -34.519531 7.566406 -34.273438 C 8.183594 -34.027344 8.921875 -33.902344 9.785156 -33.902344 L 16.921875 -33.902344 C 17.042969 -33.902344 17.226562 -33.78125 17.414062 -33.65625 C 17.597656 -33.472656 17.71875 -33.226562 17.71875 -32.917969 L 17.71875 -4.859375 C 17.71875 -4.308594 17.78125 -3.753906 18.027344 -3.199219 C 18.273438 -2.585938 18.582031 -2.09375 19.011719 -1.601562 C 19.445312 -1.109375 19.996094 -0.675781 20.613281 -0.371094 C 21.226562 -0.0625 22.027344 0.0625 22.890625 0.0625 C 23.75 0.0625 24.488281 -0.0625 25.164062 -0.371094 C 25.78125 -0.675781 26.335938 -1.046875 26.765625 -1.539062 C 27.195312 -2.03125 27.503906 -2.523438 27.75 -3.136719 C 27.933594 -3.691406 28.058594 -4.246094 28.058594 -4.800781 L 28.058594 -32.855469 C 28.058594 -33.164062 28.121094 -33.410156 28.367188 -33.59375 C 28.550781 -33.71875 28.734375 -33.839844 28.859375 -33.839844 L 35.996094 -33.839844 C 36.855469 -33.839844 37.59375 -33.964844 38.273438 -34.273438 C 38.886719 -34.578125 39.441406 -34.949219 39.871094 -35.441406 C 40.300781 -35.871094 40.609375 -36.363281 40.855469 -36.980469 C 41.039062 -37.59375 41.164062 -38.148438 41.164062 -38.703125 C 41.164062 -39.195312 41.039062 -39.75 40.792969 -40.363281 C 40.546875 -40.917969 40.242188 -41.410156 39.808594 -41.902344 C 39.316406 -42.332031 38.765625 -42.703125 38.148438 -43.007812 C 37.535156 -43.316406 36.796875 -43.5 35.933594 -43.5 Z M 9.722656 -43.5 "/></g></g></g><g fill="#ffffff" fill-opacity="1"><g transform="translate(144.005855, 236.249984)"><g><path d="M 9.785156 0 L 27.195312 0 C 28.058594 0 28.796875 -0.125 29.472656 -0.429688 C 30.089844 -0.738281 30.640625 -1.109375 31.074219 -1.601562 C 31.503906 -2.09375 31.8125 -2.585938 32.058594 -3.199219 C 32.242188 -3.753906 32.363281 -4.308594 32.363281 -4.859375 C 32.363281 -5.414062 32.242188 -5.96875 31.996094 -6.582031 C 31.75 -7.136719 31.441406 -7.628906 31.011719 -8.121094 C 30.519531 -8.550781 29.964844 -8.921875 29.351562 -9.230469 C 28.734375 -9.539062 27.996094 -9.722656 27.132812 -9.722656 L 15.691406 -9.722656 C 15.566406 -9.722656 15.382812 -9.785156 15.199219 -9.90625 C 14.953125 -10.03125 14.890625 -10.277344 14.890625 -10.644531 L 14.890625 -17.042969 C 14.890625 -17.351562 14.953125 -17.597656 15.199219 -17.78125 C 15.382812 -17.90625 15.566406 -18.027344 15.691406 -18.027344 L 23.933594 -18.027344 C 24.796875 -18.027344 25.535156 -18.152344 26.148438 -18.460938 C 26.765625 -18.765625 27.320312 -19.136719 27.75 -19.628906 C 28.179688 -20.121094 28.488281 -20.613281 28.734375 -21.226562 C 28.980469 -21.78125 29.105469 -22.335938 29.105469 -22.890625 C 29.105469 -23.441406 28.980469 -23.996094 28.734375 -24.613281 C 28.488281 -25.164062 28.179688 -25.65625 27.75 -26.148438 C 27.257812 -26.582031 26.703125 -26.949219 26.089844 -27.257812 C 25.472656 -27.566406 24.734375 -27.75 23.875 -27.75 L 15.628906 -27.75 C 15.503906 -27.75 15.320312 -27.8125 15.136719 -27.933594 C 14.890625 -28.058594 14.828125 -28.304688 14.828125 -28.671875 L 14.828125 -32.917969 C 14.828125 -33.226562 14.890625 -33.472656 15.136719 -33.65625 C 15.320312 -33.78125 15.503906 -33.902344 15.628906 -33.902344 L 27.074219 -33.902344 C 27.933594 -33.902344 28.671875 -34.027344 29.351562 -34.332031 C 29.964844 -34.640625 30.519531 -35.011719 30.949219 -35.503906 C 31.378906 -35.933594 31.6875 -36.425781 31.933594 -37.042969 C 32.117188 -37.59375 32.242188 -38.148438 32.242188 -38.703125 C 32.242188 -39.257812 32.117188 -39.808594 31.871094 -40.425781 C 31.625 -40.980469 31.320312 -41.472656 30.886719 -41.964844 C 30.394531 -42.394531 29.84375 -42.761719 29.226562 -43.070312 C 28.613281 -43.378906 27.875 -43.5625 27.011719 -43.5625 L 9.597656 -43.5625 C 8.738281 -43.5625 7.9375 -43.378906 7.320312 -43.070312 C 6.707031 -42.761719 6.152344 -42.394531 5.722656 -41.902344 C 5.230469 -41.410156 4.921875 -40.917969 4.675781 -40.363281 C 4.429688 -39.75 4.367188 -39.195312 4.367188 -38.703125 L 4.367188 -4.800781 C 4.367188 -4.183594 4.492188 -3.570312 4.738281 -3.015625 C 4.984375 -2.398438 5.351562 -1.90625 5.84375 -1.476562 C 6.335938 -0.984375 6.890625 -0.617188 7.566406 -0.371094 C 8.246094 -0.125 8.984375 0 9.785156 0 Z M 9.785156 0 "/></g></g></g><g fill="#ffffff" fill-opacity="1"><g transform="translate(181.042962, 236.249984)"><g><path d="M 36.300781 -13.289062 C 34.949219 -12.058594 33.59375 -11.199219 32.179688 -10.644531 C 30.765625 -10.03125 29.105469 -9.785156 27.195312 -9.785156 C 25.164062 -9.785156 23.382812 -10.089844 21.90625 -10.707031 C 20.367188 -11.320312 19.074219 -12.121094 18.089844 -13.230469 C 17.042969 -14.335938 16.242188 -15.566406 15.75 -17.042969 C 15.257812 -18.519531 15.011719 -20.121094 15.011719 -21.84375 C 15.011719 -23.503906 15.257812 -25.105469 15.75 -26.582031 C 16.242188 -28.058594 17.042969 -29.289062 18.089844 -30.394531 C 19.074219 -31.503906 20.367188 -32.363281 21.90625 -32.980469 C 23.382812 -33.59375 25.164062 -33.902344 27.195312 -33.902344 C 28.671875 -33.902344 30.148438 -33.65625 31.625 -33.226562 C 33.101562 -32.734375 34.457031 -31.996094 35.5625 -31.011719 C 35.6875 -30.886719 35.808594 -30.828125 35.933594 -30.703125 L 36.300781 -30.335938 C 36.734375 -29.902344 37.226562 -29.535156 37.839844 -29.226562 C 38.394531 -28.917969 39.132812 -28.796875 40.054688 -28.796875 C 40.917969 -28.796875 41.65625 -28.917969 42.269531 -29.226562 C 42.886719 -29.535156 43.441406 -29.902344 43.933594 -30.394531 C 44.363281 -30.828125 44.671875 -31.320312 44.917969 -31.933594 C 45.164062 -32.550781 45.285156 -33.101562 45.285156 -33.65625 C 45.285156 -34.824219 44.855469 -35.933594 43.992188 -36.917969 C 43.007812 -38.027344 41.839844 -39.011719 40.488281 -39.871094 C 39.132812 -40.734375 37.78125 -41.410156 36.300781 -41.964844 C 34.824219 -42.515625 33.289062 -42.949219 31.75 -43.195312 C 30.148438 -43.441406 28.671875 -43.625 27.195312 -43.625 C 23.996094 -43.625 20.980469 -43.070312 18.210938 -42.023438 C 15.445312 -40.980469 13.042969 -39.503906 11.074219 -37.59375 C 9.042969 -35.6875 7.445312 -33.410156 6.335938 -30.765625 C 5.167969 -28.058594 4.613281 -25.105469 4.613281 -21.84375 C 4.613281 -18.519531 5.167969 -15.566406 6.335938 -12.859375 C 7.445312 -10.152344 9.042969 -7.875 11.074219 -5.96875 C 13.042969 -4.0625 15.445312 -2.585938 18.210938 -1.539062 C 20.980469 -0.492188 23.996094 0 27.195312 0 C 29.902344 0 32.488281 -0.371094 35.011719 -1.167969 C 37.535156 -1.96875 39.808594 -3.199219 41.839844 -4.800781 C 42.703125 -5.414062 43.441406 -6.152344 44.179688 -6.953125 C 44.917969 -7.753906 45.285156 -8.738281 45.285156 -9.96875 C 45.285156 -10.523438 45.164062 -11.074219 44.917969 -11.691406 C 44.671875 -12.246094 44.363281 -12.738281 43.933594 -13.230469 C 43.441406 -13.660156 42.886719 -14.027344 42.269531 -14.335938 C 41.65625 -14.644531 40.917969 -14.828125 40.054688 -14.828125 C 39.132812 -14.828125 38.394531 -14.644531 37.839844 -14.335938 C 37.226562 -14.027344 36.734375 -13.660156 36.300781 -13.289062 Z M 36.300781 -13.289062 "/></g></g></g><g fill="#ffffff" fill-opacity="1"><g transform="translate(230.99999, 236.249984)"><g><path d="M 30.089844 -28.425781 L 15.8125 -28.425781 C 15.691406 -28.425781 15.503906 -28.488281 15.320312 -28.671875 C 15.074219 -28.796875 15.011719 -29.042969 15.011719 -29.410156 L 15.011719 -38.765625 C 15.011719 -39.316406 14.890625 -39.871094 14.644531 -40.488281 C 14.398438 -41.039062 14.089844 -41.53125 13.660156 -42.023438 C 13.167969 -42.457031 12.613281 -42.824219 12 -43.132812 C 11.382812 -43.441406 10.644531 -43.625 9.785156 -43.625 C 8.921875 -43.625 8.121094 -43.441406 7.507812 -43.132812 C 6.890625 -42.824219 6.335938 -42.457031 5.90625 -41.964844 C 5.414062 -41.472656 5.105469 -40.980469 4.859375 -40.425781 C 4.613281 -39.808594 4.554688 -39.257812 4.554688 -38.703125 L 4.554688 -4.859375 C 4.554688 -4.308594 4.613281 -3.753906 4.859375 -3.199219 C 5.105469 -2.585938 5.414062 -2.09375 5.84375 -1.601562 C 6.277344 -1.109375 6.828125 -0.675781 7.445312 -0.371094 C 8.058594 -0.0625 8.859375 0.0625 9.722656 0.0625 C 10.582031 0.0625 11.320312 -0.0625 12 -0.371094 C 12.613281 -0.675781 13.167969 -1.046875 13.597656 -1.539062 C 14.027344 -2.03125 14.335938 -2.523438 14.582031 -3.136719 C 14.765625 -3.691406 14.890625 -4.246094 14.890625 -4.800781 L 14.890625 -17.660156 C 14.890625 -17.964844 14.953125 -18.210938 15.199219 -18.398438 C 15.382812 -18.519531 15.566406 -18.644531 15.691406 -18.644531 L 29.964844 -18.644531 C 30.089844 -18.644531 30.273438 -18.519531 30.457031 -18.398438 C 30.640625 -18.210938 30.765625 -17.964844 30.765625 -17.660156 L 30.765625 -4.800781 C 30.765625 -4.246094 30.828125 -3.691406 31.074219 -3.136719 C 31.320312 -2.523438 31.625 -2.03125 32.058594 -1.539062 C 32.488281 -1.046875 33.042969 -0.617188 33.65625 -0.308594 C 34.273438 0 35.070312 0.125 35.933594 0.125 C 36.796875 0.125 37.535156 0 38.210938 -0.308594 C 38.824219 -0.617188 39.378906 -0.984375 39.808594 -1.476562 C 40.242188 -1.96875 40.546875 -2.460938 40.792969 -3.078125 C 40.980469 -3.628906 41.101562 -4.183594 41.101562 -4.738281 L 41.101562 -38.640625 C 41.101562 -39.132812 40.980469 -39.6875 40.734375 -40.300781 C 40.488281 -40.855469 40.179688 -41.347656 39.75 -41.839844 C 39.257812 -42.269531 38.703125 -42.640625 38.085938 -42.949219 C 37.472656 -43.253906 36.734375 -43.441406 35.871094 -43.441406 C 35.011719 -43.441406 34.210938 -43.253906 33.59375 -42.949219 C 32.980469 -42.640625 32.425781 -42.269531 31.996094 -41.777344 C 31.503906 -41.285156 31.195312 -40.792969 30.949219 -40.242188 C 30.703125 -39.625 30.640625 -39.070312 30.640625 -38.578125 L 30.640625 -29.164062 C 30.640625 -28.796875 30.582031 -28.613281 30.457031 -28.550781 C 30.335938 -28.425781 30.210938 -28.425781 30.089844 -28.425781 Z M 30.089844 -28.425781 "/></g></g></g></svg>