<svg xmlns="http://www.w3.org/2000/svg" xmlns:xlink="http://www.w3.org/1999/xlink" width="500" zoomAndPan="magnify" viewBox="0 0 375 374.999991" height="500" preserveAspectRatio="xMidYMid meet" version="1.0"><defs><clipPath id="id1"><path d="M 112.5 113.0625 L 220 113.0625 L 220 221 L 112.5 221 Z M 112.5 113.0625 " clip-rule="nonzero"/></clipPath><clipPath id="id2"><path d="M 215 216 L 262 216 L 262 262.3125 L 215 262.3125 Z M 215 216 " clip-rule="nonzero"/></clipPath></defs><g clip-path="url(#id1)"><path fill="#ffffff" d="M 166.136719 113.074219 C 136.632812 113.074219 112.632812 137.132812 112.632812 166.710938 C 112.632812 196.289062 136.632812 220.351562 166.136719 220.351562 C 195.640625 220.351562 219.640625 196.289062 219.640625 166.710938 C 219.640625 137.132812 195.640625 113.074219 166.136719 113.074219 Z M 166.136719 211.921875 C 141.269531 211.921875 121.039062 191.640625 121.039062 166.710938 C 121.039062 141.785156 141.269531 121.5 166.136719 121.5 C 191.003906 121.5 211.234375 141.785156 211.234375 166.710938 C 211.234375 191.640625 191.003906 211.921875 166.136719 211.921875 Z M 166.136719 211.921875 " fill-opacity="1" fill-rule="nonzero"/></g><path fill="#ffffff" d="M 219.738281 212.933594 L 210.296875 203.464844 C 207.949219 206.292969 205.339844 208.894531 202.503906 211.226562 L 212.09375 220.84375 C 212.703125 219.097656 213.703125 217.453125 215.09375 216.0625 L 215.359375 215.792969 C 216.625 214.523438 218.113281 213.5625 219.738281 212.933594 Z M 219.738281 212.933594 " fill-opacity="1" fill-rule="nonzero"/><g clip-path="url(#id2)"><path fill="#ffffff" d="M 230.511719 218.566406 C 228.867188 216.917969 226.667969 216.011719 224.320312 216.011719 C 221.972656 216.011719 219.773438 216.917969 218.128906 218.566406 L 217.863281 218.835938 C 216.214844 220.484375 215.3125 222.691406 215.3125 225.042969 C 215.3125 227.394531 216.214844 229.601562 217.863281 231.25 L 246.320312 259.777344 C 247.964844 261.425781 250.164062 262.335938 252.511719 262.335938 C 254.855469 262.335938 257.054688 261.425781 258.699219 259.777344 L 258.96875 259.507812 C 262.382812 256.085938 262.382812 250.519531 258.96875 247.097656 Z M 230.511719 218.566406 " fill-opacity="1" fill-rule="nonzero"/></g></svg>